<?xml version="1.0"?>
<svg version="1.1" xmlns="http://www.w3.org/2000/svg" viewBox="0 0 400 100" role="img" aria-label="The University of Iowa Hubbell Environmental&#13; Law Initiative"><path fill="#000000" d="M172.51,13.23h-1.73V25.69h1.73v4.54H163V25.69h1.73V13.23H163V8.77h9.51Z"/><path fill="#000000" d="M185.29,30.23H178.4c-2.5,0-4.14-1.64-4.14-4.33V13.09a4,4,0,0,1,3.66-4.31,3.85,3.85,0,0,1,.48,0h6.89c2.5,0,4.13,1.67,4.13,4.32V25.87a4,4,0,0,1-3.62,4.35A4.34,4.34,0,0,1,185.29,30.23Zm-2-4.51V13.23h-3V25.69Z"/><path fill="#000000" d="M192.13,13.24h-1.52V8.78h9v4.46h-1.7l1.55,10.31,3.21-14.79h4.57l3.43,14.79,1.25-10.31h-1.57V8.78h8.89v4.46h-1.48l-2.69,17h-7.25L205,17.58l-2.88,12.66h-7Z"/><path fill="#000000" d="M217.67,25.69h1.63l3.25-16.92h9.72l3.21,16.92H237v4.54h-7.26L229.06,25h-3.61l-.65,5.22h-7.13Zm11-4.63-1.39-8.65-1.42,8.65Z"/><rect x="155.357421875" y="35.16" width="89.28515625" height="0.733" style="fill:#000000"/><path fill="#000000" d="M164.884765625,47.189375C164.884765625,47.189375,163.712890625,47.189375,163.712890625,47.189375C163.712890625,47.189375,163.712890625,44.751875,163.712890625,44.751875C163.712890625,44.751875,161.427734375,44.751875,161.427734375,44.751875C161.427734375,44.751875,161.427734375,47.189375,161.427734375,47.189375C161.427734375,47.189375,160.255859375,47.189375,160.255859375,47.189375C160.255859375,47.189375,160.255859375,41.501875,160.255859375,41.501875C160.255859375,41.501875,161.427734375,41.501875,161.427734375,41.501875C161.427734375,41.501875,161.427734375,43.8065625,161.427734375,43.8065625C161.427734375,43.8065625,163.712890625,43.8065625,163.712890625,43.8065625C163.712890625,43.8065625,163.712890625,41.501875,163.712890625,41.501875C163.712890625,41.501875,164.884765625,41.501875,164.884765625,41.501875C164.884765625,41.501875,164.884765625,47.189375,164.884765625,47.189375Z M168.365234375,46.7596875C168.08658984375,47.09823046875,167.701171875,47.2675,167.208984375,47.2675C166.755859375,47.2675,166.41015625,47.13729296875,166.171875,46.876875C165.93359375,46.61645703125,165.81184765625,46.23494921875,165.806640625,45.73234375C165.806640625,45.73234375,165.806640625,42.9628125,165.806640625,42.9628125C165.806640625,42.9628125,166.935546875,42.9628125,166.935546875,42.9628125C166.935546875,42.9628125,166.935546875,45.69328125,166.935546875,45.69328125C166.935546875,46.13338671875,167.13606640625,46.3534375,167.537109375,46.3534375C167.919921875,46.3534375,168.18294140625,46.220625,168.326171875,45.955C168.326171875,45.955,168.326171875,42.9628125,168.326171875,42.9628125C168.326171875,42.9628125,169.458984375,42.9628125,169.458984375,42.9628125C169.458984375,42.9628125,169.458984375,47.189375,169.458984375,47.189375C169.458984375,47.189375,168.396484375,47.189375,168.396484375,47.189375C168.396484375,47.189375,168.365234375,46.7596875,168.365234375,46.7596875Z M174.119140625,45.11515625C174.119140625,45.79223828125,173.974609375,46.320234375,173.685546875,46.699140625C173.396484375,47.078046875,172.99283984375,47.2675,172.474609375,47.2675C172.01627734375,47.2675,171.650390625,47.09171875,171.376953125,46.74015625C171.376953125,46.74015625,171.326171875,47.189375,171.326171875,47.189375C171.326171875,47.189375,170.310546875,47.189375,170.310546875,47.189375C170.310546875,47.189375,170.310546875,41.189375,170.310546875,41.189375C170.310546875,41.189375,171.439453125,41.189375,171.439453125,41.189375C171.439453125,41.189375,171.439453125,43.34171875,171.439453125,43.34171875C171.69987109375,43.03703125,172.04231640625,42.8846875,172.466796875,42.8846875C172.982421875,42.8846875,173.38671875,43.074140625,173.6796875,43.453046875C173.97265625,43.831953125,174.119140625,44.36515625,174.119140625,45.05265625C174.119140625,45.05265625,174.119140625,45.11515625,174.119140625,45.11515625Z M172.990234375,45.033125C172.990234375,44.60604296875,172.92252734375,44.29419140625,172.787109375,44.097578125C172.65169140625,43.90096484375,172.44987109375,43.80265625,172.181640625,43.80265625C171.822265625,43.80265625,171.57487109375,43.94979296875,171.439453125,44.2440625C171.439453125,44.2440625,171.439453125,45.91203125,171.439453125,45.91203125C171.57747265625,46.20890625,171.82747265625,46.35734375,172.189453125,46.35734375C172.55403515625,46.35734375,172.79362109375,46.17765625,172.908203125,45.81828125C172.962890625,45.64640625,172.990234375,45.3846875,172.990234375,45.033125Z M178.623046875,45.11515625C178.623046875,45.79223828125,178.478515625,46.320234375,178.189453125,46.699140625C177.900390625,47.078046875,177.49674609375,47.2675,176.978515625,47.2675C176.52018359375,47.2675,176.154296875,47.09171875,175.880859375,46.74015625C175.880859375,46.74015625,175.830078125,47.189375,175.830078125,47.189375C175.830078125,47.189375,174.814453125,47.189375,174.814453125,47.189375C174.814453125,47.189375,174.814453125,41.189375,174.814453125,41.189375C174.814453125,41.189375,175.943359375,41.189375,175.943359375,41.189375C175.943359375,41.189375,175.943359375,43.34171875,175.943359375,43.34171875C176.20377734375,43.03703125,176.54622265625,42.8846875,176.970703125,42.8846875C177.486328125,42.8846875,177.890625,43.074140625,178.18359375,43.453046875C178.4765625,43.831953125,178.623046875,44.36515625,178.623046875,45.05265625C178.623046875,45.05265625,178.623046875,45.11515625,178.623046875,45.11515625Z M177.494140625,45.033125C177.494140625,44.60604296875,177.42643359375,44.29419140625,177.291015625,44.097578125C177.15559765625,43.90096484375,176.95377734375,43.80265625,176.685546875,43.80265625C176.326171875,43.80265625,176.07877734375,43.94979296875,175.943359375,44.2440625C175.943359375,44.2440625,175.943359375,45.91203125,175.943359375,45.91203125C176.08137890625,46.20890625,176.33137890625,46.35734375,176.693359375,46.35734375C177.05794140625,46.35734375,177.29752734375,46.17765625,177.412109375,45.81828125C177.466796875,45.64640625,177.494140625,45.3846875,177.494140625,45.033125Z M181.263671875,47.2675C180.64387890625,47.2675,180.13932421875,47.07739453125,179.75,46.6971875C179.36067578125,46.31698046875,179.166015625,45.81046875,179.166015625,45.17765625C179.166015625,45.17765625,179.166015625,45.06828125,179.166015625,45.06828125C179.166015625,44.64380078125,179.248046875,44.26424609375,179.412109375,43.929609375C179.576171875,43.59497265625,179.80859375,43.33716015625,180.109375,43.156171875C180.41015625,42.97518359375,180.75325390625,42.8846875,181.138671875,42.8846875C181.716796875,42.8846875,182.171875,43.06698046875,182.50390625,43.4315625C182.8359375,43.79614453125,183.001953125,44.31307421875,183.001953125,44.98234375C183.001953125,44.98234375,183.001953125,45.44328125,183.001953125,45.44328125C183.001953125,45.44328125,180.310546875,45.44328125,180.310546875,45.44328125C180.34700390625,45.71932421875,180.45703125,45.94067578125,180.640625,46.10734375C180.82421875,46.27401171875,181.056640625,46.35734375,181.337890625,46.35734375C181.77278515625,46.35734375,182.11262890625,46.19979296875,182.357421875,45.8846875C182.357421875,45.8846875,182.912109375,46.50578125,182.912109375,46.50578125C182.74283984375,46.74536328125,182.513671875,46.93221484375,182.224609375,47.066328125C181.935546875,47.20044140625,181.615234375,47.2675,181.263671875,47.2675Z M181.134765625,43.79875C180.91080859375,43.79875,180.72916796875,43.87426953125,180.58984375,44.0253125C180.45051953125,44.17635546875,180.361328125,44.3925,180.322265625,44.67375C180.322265625,44.67375,181.892578125,44.67375,181.892578125,44.67375C181.892578125,44.67375,181.892578125,44.58390625,181.892578125,44.58390625C181.88737109375,44.33390625,181.81966015625,44.140546875,181.689453125,44.003828125C181.55924609375,43.867109375,181.37434765625,43.79875,181.134765625,43.79875Z M184.833984375,47.189375C184.833984375,47.189375,183.701171875,47.189375,183.701171875,47.189375C183.701171875,47.189375,183.701171875,41.189375,183.701171875,41.189375C183.701171875,41.189375,184.833984375,41.189375,184.833984375,41.189375C184.833984375,41.189375,184.833984375,47.189375,184.833984375,47.189375Z M186.955078125,47.189375C186.955078125,47.189375,185.822265625,47.189375,185.822265625,47.189375C185.822265625,47.189375,185.822265625,41.189375,185.822265625,41.189375C185.822265625,41.189375,186.955078125,41.189375,186.955078125,41.189375C186.955078125,41.189375,186.955078125,47.189375,186.955078125,47.189375Z M187.060546875,47.189375Z M193.373046875,44.72453125C193.373046875,44.72453125,191.123046875,44.72453125,191.123046875,44.72453125C191.123046875,44.72453125,191.123046875,46.24796875,191.123046875,46.24796875C191.123046875,46.24796875,193.763671875,46.24796875,193.763671875,46.24796875C193.763671875,46.24796875,193.763671875,47.189375,193.763671875,47.189375C193.763671875,47.189375,189.951171875,47.189375,189.951171875,47.189375C189.951171875,47.189375,189.951171875,41.501875,189.951171875,41.501875C189.951171875,41.501875,193.755859375,41.501875,193.755859375,41.501875C193.755859375,41.501875,193.755859375,42.45109375,193.755859375,42.45109375C193.755859375,42.45109375,191.123046875,42.45109375,191.123046875,42.45109375C191.123046875,42.45109375,191.123046875,43.8065625,191.123046875,43.8065625C191.123046875,43.8065625,193.373046875,43.8065625,193.373046875,43.8065625C193.373046875,43.8065625,193.373046875,44.72453125,193.373046875,44.72453125Z M195.416015625,42.9628125C195.416015625,42.9628125,195.451171875,43.45109375,195.451171875,43.45109375C195.75325390625,43.07348828125,196.158203125,42.8846875,196.666015625,42.8846875C197.11393359375,42.8846875,197.447265625,43.01619921875,197.666015625,43.27921875C197.884765625,43.54223828125,197.99674609375,43.93546875,198.001953125,44.45890625C198.001953125,44.45890625,198.001953125,47.189375,198.001953125,47.189375C198.001953125,47.189375,196.873046875,47.189375,196.873046875,47.189375C196.873046875,47.189375,196.873046875,44.48625,196.873046875,44.48625C196.873046875,44.24666796875,196.82096484375,44.07283984375,196.716796875,43.964765625C196.61262890625,43.85669140625,196.439453125,43.80265625,196.197265625,43.80265625C195.87955859375,43.80265625,195.64127734375,43.93807421875,195.482421875,44.20890625C195.482421875,44.20890625,195.482421875,47.189375,195.482421875,47.189375C195.482421875,47.189375,194.353515625,47.189375,194.353515625,47.189375C194.353515625,47.189375,194.353515625,42.9628125,194.353515625,42.9628125C194.353515625,42.9628125,195.416015625,42.9628125,195.416015625,42.9628125Z M200.439453125,45.81046875C200.439453125,45.81046875,201.224609375,42.9628125,201.224609375,42.9628125C201.224609375,42.9628125,202.404296875,42.9628125,202.404296875,42.9628125C202.404296875,42.9628125,200.978515625,47.189375,200.978515625,47.189375C200.978515625,47.189375,199.900390625,47.189375,199.900390625,47.189375C199.900390625,47.189375,198.474609375,42.9628125,198.474609375,42.9628125C198.474609375,42.9628125,199.654296875,42.9628125,199.654296875,42.9628125C199.654296875,42.9628125,200.439453125,45.81046875,200.439453125,45.81046875Z M204.091796875,47.189375C204.091796875,47.189375,202.958984375,47.189375,202.958984375,47.189375C202.958984375,47.189375,202.958984375,42.9628125,202.958984375,42.9628125C202.958984375,42.9628125,204.091796875,42.9628125,204.091796875,42.9628125C204.091796875,42.9628125,204.091796875,47.189375,204.091796875,47.189375Z M202.892578125,41.8690625C202.892578125,41.69979296875,202.94921875,41.56046875,203.0625,41.45109375C203.17578125,41.34171875,203.330078125,41.28703125,203.525390625,41.28703125C203.71809765625,41.28703125,203.87174609375,41.34171875,203.986328125,41.45109375C204.10091015625,41.56046875,204.158203125,41.69979296875,204.158203125,41.8690625C204.158203125,42.0409375,204.10026171875,42.1815625,203.984375,42.2909375C203.86848828125,42.4003125,203.71549609375,42.455,203.525390625,42.455C203.33528515625,42.455,203.18229296875,42.4003125,203.06640625,42.2909375C202.95051953125,42.1815625,202.892578125,42.0409375,202.892578125,41.8690625Z M207.396484375,44.02140625C207.24283984375,44.00057421875,207.107421875,43.99015625,206.990234375,43.99015625C206.56315234375,43.99015625,206.283203125,44.1346875,206.150390625,44.42375C206.150390625,44.42375,206.150390625,47.189375,206.150390625,47.189375C206.150390625,47.189375,205.021484375,47.189375,205.021484375,47.189375C205.021484375,47.189375,205.021484375,42.9628125,205.021484375,42.9628125C205.021484375,42.9628125,206.087890625,42.9628125,206.087890625,42.9628125C206.087890625,42.9628125,206.119140625,43.46671875,206.119140625,43.46671875C206.345703125,43.07869921875,206.65950390625,42.8846875,207.060546875,42.8846875C207.185546875,42.8846875,207.302734375,42.90161328125,207.412109375,42.93546875C207.412109375,42.93546875,207.396484375,44.02140625,207.396484375,44.02140625Z M207.708984375,45.03703125C207.708984375,44.61776171875,207.78971484375,44.2440625,207.951171875,43.9159375C208.11262890625,43.5878125,208.34505078125,43.33390625,208.6484375,43.15421875C208.95182421875,42.97453125,209.30403515625,42.8846875,209.705078125,42.8846875C210.275390625,42.8846875,210.74088671875,43.05916796875,211.1015625,43.408125C211.46223828125,43.75708203125,211.66341015625,44.23104296875,211.705078125,44.83C211.705078125,44.83,211.712890625,45.1190625,211.712890625,45.1190625C211.712890625,45.7675,211.53190234375,46.28768359375,211.169921875,46.679609375C210.80794140625,47.07153515625,210.322265625,47.2675,209.712890625,47.2675C209.103515625,47.2675,208.6171875,47.0721875,208.25390625,46.6815625C207.890625,46.2909375,207.708984375,45.7596875,207.708984375,45.0878125C207.708984375,45.0878125,207.708984375,45.03703125,207.708984375,45.03703125Z M208.837890625,45.1190625C208.837890625,45.52010546875,208.91341015625,45.82674609375,209.064453125,46.038984375C209.21549609375,46.25122265625,209.431640625,46.35734375,209.712890625,46.35734375C209.986328125,46.35734375,210.19987109375,46.25252734375,210.353515625,46.042890625C210.50716015625,45.83325390625,210.583984375,45.49796875,210.583984375,45.03703125C210.583984375,44.64380078125,210.50716015625,44.33911328125,210.353515625,44.12296875C210.19987109375,43.90682421875,209.98372265625,43.79875,209.705078125,43.79875C209.42903515625,43.79875,209.21549609375,43.906171875,209.064453125,44.121015625C208.91341015625,44.335859375,208.837890625,44.66854296875,208.837890625,45.1190625Z M213.447265625,42.9628125C213.447265625,42.9628125,213.482421875,43.45109375,213.482421875,43.45109375C213.78450390625,43.07348828125,214.189453125,42.8846875,214.697265625,42.8846875C215.14518359375,42.8846875,215.478515625,43.01619921875,215.697265625,43.27921875C215.916015625,43.54223828125,216.02799609375,43.93546875,216.033203125,44.45890625C216.033203125,44.45890625,216.033203125,47.189375,216.033203125,47.189375C216.033203125,47.189375,214.904296875,47.189375,214.904296875,47.189375C214.904296875,47.189375,214.904296875,44.48625,214.904296875,44.48625C214.904296875,44.24666796875,214.85221484375,44.07283984375,214.748046875,43.964765625C214.64387890625,43.85669140625,214.470703125,43.80265625,214.228515625,43.80265625C213.91080859375,43.80265625,213.67252734375,43.93807421875,213.513671875,44.20890625C213.513671875,44.20890625,213.513671875,47.189375,213.513671875,47.189375C213.513671875,47.189375,212.384765625,47.189375,212.384765625,47.189375C212.384765625,47.189375,212.384765625,42.9628125,212.384765625,42.9628125C212.384765625,42.9628125,213.447265625,42.9628125,213.447265625,42.9628125Z M217.947265625,42.9628125C217.947265625,42.9628125,217.982421875,43.43546875,217.982421875,43.43546875C218.28190234375,43.06828125,218.68684765625,42.8846875,219.197265625,42.8846875C219.74153515625,42.8846875,220.115234375,43.09953125,220.318359375,43.52921875C220.615234375,43.09953125,221.03841015625,42.8846875,221.587890625,42.8846875C222.04622265625,42.8846875,222.38737109375,43.01815234375,222.611328125,43.285078125C222.83528515625,43.55200390625,222.947265625,43.95369921875,222.947265625,44.49015625C222.947265625,44.49015625,222.947265625,47.189375,222.947265625,47.189375C222.947265625,47.189375,221.814453125,47.189375,221.814453125,47.189375C221.814453125,47.189375,221.814453125,44.4940625,221.814453125,44.4940625C221.814453125,44.25448046875,221.767578125,44.07934765625,221.673828125,43.968671875C221.580078125,43.85799609375,221.41471484375,43.80265625,221.177734375,43.80265625C220.83919140625,43.80265625,220.60481640625,43.96411328125,220.474609375,44.28703125C220.474609375,44.28703125,220.478515625,47.189375,220.478515625,47.189375C220.478515625,47.189375,219.349609375,47.189375,219.349609375,47.189375C219.349609375,47.189375,219.349609375,44.49796875,219.349609375,44.49796875C219.349609375,44.25317578125,219.30143359375,44.07609375,219.205078125,43.96671875C219.10872265625,43.85734375,218.94466015625,43.80265625,218.712890625,43.80265625C218.392578125,43.80265625,218.16080859375,43.93546875,218.017578125,44.20109375C218.017578125,44.20109375,218.017578125,47.189375,218.017578125,47.189375C218.017578125,47.189375,216.888671875,47.189375,216.888671875,47.189375C216.888671875,47.189375,216.888671875,42.9628125,216.888671875,42.9628125C216.888671875,42.9628125,217.947265625,42.9628125,217.947265625,42.9628125Z M225.603515625,47.2675C224.98372265625,47.2675,224.47916796875,47.07739453125,224.08984375,46.6971875C223.70051953125,46.31698046875,223.505859375,45.81046875,223.505859375,45.17765625C223.505859375,45.17765625,223.505859375,45.06828125,223.505859375,45.06828125C223.505859375,44.64380078125,223.587890625,44.26424609375,223.751953125,43.929609375C223.916015625,43.59497265625,224.1484375,43.33716015625,224.44921875,43.156171875C224.75,42.97518359375,225.09309765625,42.8846875,225.478515625,42.8846875C226.056640625,42.8846875,226.51171875,43.06698046875,226.84375,43.4315625C227.17578125,43.79614453125,227.341796875,44.31307421875,227.341796875,44.98234375C227.341796875,44.98234375,227.341796875,45.44328125,227.341796875,45.44328125C227.341796875,45.44328125,224.650390625,45.44328125,224.650390625,45.44328125C224.68684765625,45.71932421875,224.796875,45.94067578125,224.98046875,46.10734375C225.1640625,46.27401171875,225.396484375,46.35734375,225.677734375,46.35734375C226.11262890625,46.35734375,226.45247265625,46.19979296875,226.697265625,45.8846875C226.697265625,45.8846875,227.251953125,46.50578125,227.251953125,46.50578125C227.08268359375,46.74536328125,226.853515625,46.93221484375,226.564453125,47.066328125C226.275390625,47.20044140625,225.955078125,47.2675,225.603515625,47.2675Z M225.474609375,43.79875C225.25065234375,43.79875,225.06901171875,43.87426953125,224.9296875,44.0253125C224.79036328125,44.17635546875,224.701171875,44.3925,224.662109375,44.67375C224.662109375,44.67375,226.232421875,44.67375,226.232421875,44.67375C226.232421875,44.67375,226.232421875,44.58390625,226.232421875,44.58390625C226.22721484375,44.33390625,226.15950390625,44.140546875,226.029296875,44.003828125C225.89908984375,43.867109375,225.71419140625,43.79875,225.474609375,43.79875Z M229.021484375,42.9628125C229.021484375,42.9628125,229.056640625,43.45109375,229.056640625,43.45109375C229.35872265625,43.07348828125,229.763671875,42.8846875,230.271484375,42.8846875C230.71940234375,42.8846875,231.052734375,43.01619921875,231.271484375,43.27921875C231.490234375,43.54223828125,231.60221484375,43.93546875,231.607421875,44.45890625C231.607421875,44.45890625,231.607421875,47.189375,231.607421875,47.189375C231.607421875,47.189375,230.478515625,47.189375,230.478515625,47.189375C230.478515625,47.189375,230.478515625,44.48625,230.478515625,44.48625C230.478515625,44.24666796875,230.42643359375,44.07283984375,230.322265625,43.964765625C230.21809765625,43.85669140625,230.044921875,43.80265625,229.802734375,43.80265625C229.48502734375,43.80265625,229.24674609375,43.93807421875,229.087890625,44.20890625C229.087890625,44.20890625,229.087890625,47.189375,229.087890625,47.189375C229.087890625,47.189375,227.958984375,47.189375,227.958984375,47.189375C227.958984375,47.189375,227.958984375,42.9628125,227.958984375,42.9628125C227.958984375,42.9628125,229.021484375,42.9628125,229.021484375,42.9628125Z M233.814453125,41.92375C233.814453125,41.92375,233.814453125,42.9628125,233.814453125,42.9628125C233.814453125,42.9628125,234.537109375,42.9628125,234.537109375,42.9628125C234.537109375,42.9628125,234.537109375,43.7909375,234.537109375,43.7909375C234.537109375,43.7909375,233.814453125,43.7909375,233.814453125,43.7909375C233.814453125,43.7909375,233.814453125,45.9003125,233.814453125,45.9003125C233.814453125,46.0565625,233.84440234375,46.16854296875,233.904296875,46.23625C233.96419140625,46.30395703125,234.07877734375,46.3378125,234.248046875,46.3378125C234.373046875,46.3378125,234.48372265625,46.32869921875,234.580078125,46.31046875C234.580078125,46.31046875,234.580078125,47.1659375,234.580078125,47.1659375C234.35872265625,47.23364453125,234.130859375,47.2675,233.896484375,47.2675C233.10481640625,47.2675,232.701171875,46.86776171875,232.685546875,46.06828125C232.685546875,46.06828125,232.685546875,43.7909375,232.685546875,43.7909375C232.685546875,43.7909375,232.068359375,43.7909375,232.068359375,43.7909375C232.068359375,43.7909375,232.068359375,42.9628125,232.068359375,42.9628125C232.068359375,42.9628125,232.685546875,42.9628125,232.685546875,42.9628125C232.685546875,42.9628125,232.685546875,41.92375,232.685546875,41.92375C232.685546875,41.92375,233.814453125,41.92375,233.814453125,41.92375Z M237.615234375,47.189375C237.56315234375,47.0878125,237.525390625,46.96151171875,237.501953125,46.81046875C237.228515625,47.11515625,236.873046875,47.2675,236.435546875,47.2675C236.021484375,47.2675,235.67838671875,47.14770703125,235.40625,46.908125C235.13411328125,46.66854296875,234.998046875,46.36645703125,234.998046875,46.001875C234.998046875,45.55395703125,235.1640625,45.21020703125,235.49609375,44.970625C235.828125,44.73104296875,236.30794140625,44.60994921875,236.935546875,44.60734375C236.935546875,44.60734375,237.455078125,44.60734375,237.455078125,44.60734375C237.455078125,44.60734375,237.455078125,44.36515625,237.455078125,44.36515625C237.455078125,44.16984375,237.40494921875,44.01359375,237.3046875,43.89640625C237.20442578125,43.77921875,237.04622265625,43.720625,236.830078125,43.720625C236.63997265625,43.720625,236.49088671875,43.76619921875,236.3828125,43.85734375C236.27473828125,43.94848828125,236.220703125,44.07348828125,236.220703125,44.23234375C236.220703125,44.23234375,235.091796875,44.23234375,235.091796875,44.23234375C235.091796875,43.98755078125,235.16731640625,43.76098828125,235.318359375,43.55265625C235.46940234375,43.34432421875,235.68294140625,43.18091015625,235.958984375,43.062421875C236.23502734375,42.94393359375,236.544921875,42.8846875,236.888671875,42.8846875C237.40950390625,42.8846875,237.82291796875,43.015546875,238.12890625,43.277265625C238.43489453125,43.538984375,238.587890625,43.90682421875,238.587890625,44.38078125C238.587890625,44.38078125,238.587890625,46.2128125,238.587890625,46.2128125C238.59049609375,46.61385546875,238.646484375,46.91723828125,238.755859375,47.12296875C238.755859375,47.12296875,238.755859375,47.189375,238.755859375,47.189375C238.755859375,47.189375,237.615234375,47.189375,237.615234375,47.189375Z M236.681640625,46.40421875C236.84830859375,46.40421875,237.001953125,46.367109375,237.142578125,46.292890625C237.283203125,46.218671875,237.38737109375,46.1190625,237.455078125,45.9940625C237.455078125,45.9940625,237.455078125,45.2675,237.455078125,45.2675C237.455078125,45.2675,237.033203125,45.2675,237.033203125,45.2675C236.46809765625,45.2675,236.16731640625,45.4628125,236.130859375,45.8534375C236.130859375,45.8534375,236.126953125,45.91984375,236.126953125,45.91984375C236.126953125,46.06046875,236.17643359375,46.17635546875,236.275390625,46.2675C236.37434765625,46.35864453125,236.509765625,46.40421875,236.681640625,46.40421875Z M240.537109375,47.189375C240.537109375,47.189375,239.404296875,47.189375,239.404296875,47.189375C239.404296875,47.189375,239.404296875,41.189375,239.404296875,41.189375C239.404296875,41.189375,240.537109375,41.189375,240.537109375,41.189375C240.537109375,41.189375,240.537109375,47.189375,240.537109375,47.189375Z"/><path fill="#000000" d="M178.333984375,55.74221875C178.333984375,55.74221875,180.822265625,55.74221875,180.822265625,55.74221875C180.822265625,55.74221875,180.822265625,56.683625,180.822265625,56.683625C180.822265625,56.683625,177.162109375,56.683625,177.162109375,56.683625C177.162109375,56.683625,177.162109375,50.996125,177.162109375,50.996125C177.162109375,50.996125,178.333984375,50.996125,178.333984375,50.996125C178.333984375,50.996125,178.333984375,55.74221875,178.333984375,55.74221875Z M183.869140625,56.683625C183.81705859375,56.5820625,183.779296875,56.45576171875,183.755859375,56.30471875C183.482421875,56.60940625,183.126953125,56.76175,182.689453125,56.76175C182.275390625,56.76175,181.93229296875,56.64195703125,181.66015625,56.402375C181.38801953125,56.16279296875,181.251953125,55.86070703125,181.251953125,55.496125C181.251953125,55.04820703125,181.41796875,54.70445703125,181.75,54.464875C182.08203125,54.22529296875,182.56184765625,54.10419921875,183.189453125,54.10159375C183.189453125,54.10159375,183.708984375,54.10159375,183.708984375,54.10159375C183.708984375,54.10159375,183.708984375,53.85940625,183.708984375,53.85940625C183.708984375,53.66409375,183.65885546875,53.50784375,183.55859375,53.39065625C183.45833203125,53.27346875,183.30012890625,53.214875,183.083984375,53.214875C182.89387890625,53.214875,182.74479296875,53.26044921875,182.63671875,53.35159375C182.52864453125,53.44273828125,182.474609375,53.56773828125,182.474609375,53.72659375C182.474609375,53.72659375,181.345703125,53.72659375,181.345703125,53.72659375C181.345703125,53.48180078125,181.42122265625,53.25523828125,181.572265625,53.04690625C181.72330859375,52.83857421875,181.93684765625,52.67516015625,182.212890625,52.556671875C182.48893359375,52.43818359375,182.798828125,52.3789375,183.142578125,52.3789375C183.66341015625,52.3789375,184.07682421875,52.509796875,184.3828125,52.771515625C184.68880078125,53.033234375,184.841796875,53.40107421875,184.841796875,53.87503125C184.841796875,53.87503125,184.841796875,55.7070625,184.841796875,55.7070625C184.84440234375,56.10810546875,184.900390625,56.41148828125,185.009765625,56.61721875C185.009765625,56.61721875,185.009765625,56.683625,185.009765625,56.683625C185.009765625,56.683625,183.869140625,56.683625,183.869140625,56.683625Z M182.935546875,55.89846875C183.10221484375,55.89846875,183.255859375,55.861359375,183.396484375,55.787140625C183.537109375,55.712921875,183.64127734375,55.6133125,183.708984375,55.4883125C183.708984375,55.4883125,183.708984375,54.76175,183.708984375,54.76175C183.708984375,54.76175,183.287109375,54.76175,183.287109375,54.76175C182.72200390625,54.76175,182.42122265625,54.9570625,182.384765625,55.3476875C182.384765625,55.3476875,182.380859375,55.41409375,182.380859375,55.41409375C182.380859375,55.55471875,182.43033984375,55.67060546875,182.529296875,55.76175C182.62825390625,55.85289453125,182.763671875,55.89846875,182.935546875,55.89846875Z M189.275390625,55.14846875C189.275390625,55.14846875,189.830078125,52.4570625,189.830078125,52.4570625C189.830078125,52.4570625,190.919921875,52.4570625,190.919921875,52.4570625C190.919921875,52.4570625,189.841796875,56.683625,189.841796875,56.683625C189.841796875,56.683625,188.896484375,56.683625,188.896484375,56.683625C188.896484375,56.683625,188.095703125,54.02346875,188.095703125,54.02346875C188.095703125,54.02346875,187.294921875,56.683625,187.294921875,56.683625C187.294921875,56.683625,186.353515625,56.683625,186.353515625,56.683625C186.353515625,56.683625,185.275390625,52.4570625,185.275390625,52.4570625C185.275390625,52.4570625,186.365234375,52.4570625,186.365234375,52.4570625C186.365234375,52.4570625,186.916015625,55.1445625,186.916015625,55.1445625C186.916015625,55.1445625,187.689453125,52.4570625,187.689453125,52.4570625C187.689453125,52.4570625,188.505859375,52.4570625,188.505859375,52.4570625C188.505859375,52.4570625,189.275390625,55.14846875,189.275390625,55.14846875Z M190.654296875,56.683625Z M194.791015625,56.683625C194.791015625,56.683625,193.619140625,56.683625,193.619140625,56.683625C193.619140625,56.683625,193.619140625,50.996125,193.619140625,50.996125C193.619140625,50.996125,194.791015625,50.996125,194.791015625,50.996125C194.791015625,50.996125,194.791015625,56.683625,194.791015625,56.683625Z M196.841796875,52.4570625C196.841796875,52.4570625,196.876953125,52.94534375,196.876953125,52.94534375C197.17903515625,52.56773828125,197.583984375,52.3789375,198.091796875,52.3789375C198.53971484375,52.3789375,198.873046875,52.51044921875,199.091796875,52.77346875C199.310546875,53.03648828125,199.42252734375,53.42971875,199.427734375,53.95315625C199.427734375,53.95315625,199.427734375,56.683625,199.427734375,56.683625C199.427734375,56.683625,198.298828125,56.683625,198.298828125,56.683625C198.298828125,56.683625,198.298828125,53.9805,198.298828125,53.9805C198.298828125,53.74091796875,198.24674609375,53.56708984375,198.142578125,53.459015625C198.03841015625,53.35094140625,197.865234375,53.29690625,197.623046875,53.29690625C197.30533984375,53.29690625,197.06705859375,53.43232421875,196.908203125,53.70315625C196.908203125,53.70315625,196.908203125,56.683625,196.908203125,56.683625C196.908203125,56.683625,195.779296875,56.683625,195.779296875,56.683625C195.779296875,56.683625,195.779296875,52.4570625,195.779296875,52.4570625C195.779296875,52.4570625,196.841796875,52.4570625,196.841796875,52.4570625Z M201.474609375,56.683625C201.474609375,56.683625,200.341796875,56.683625,200.341796875,56.683625C200.341796875,56.683625,200.341796875,52.4570625,200.341796875,52.4570625C200.341796875,52.4570625,201.474609375,52.4570625,201.474609375,52.4570625C201.474609375,52.4570625,201.474609375,56.683625,201.474609375,56.683625Z M200.275390625,51.3633125C200.275390625,51.19404296875,200.33203125,51.05471875,200.4453125,50.94534375C200.55859375,50.83596875,200.712890625,50.78128125,200.908203125,50.78128125C201.10091015625,50.78128125,201.25455859375,50.83596875,201.369140625,50.94534375C201.48372265625,51.05471875,201.541015625,51.19404296875,201.541015625,51.3633125C201.541015625,51.5351875,201.48307421875,51.6758125,201.3671875,51.7851875C201.25130078125,51.8945625,201.09830859375,51.94925,200.908203125,51.94925C200.71809765625,51.94925,200.56510546875,51.8945625,200.44921875,51.7851875C200.33333203125,51.6758125,200.275390625,51.5351875,200.275390625,51.3633125Z M203.755859375,51.418C203.755859375,51.418,203.755859375,52.4570625,203.755859375,52.4570625C203.755859375,52.4570625,204.478515625,52.4570625,204.478515625,52.4570625C204.478515625,52.4570625,204.478515625,53.2851875,204.478515625,53.2851875C204.478515625,53.2851875,203.755859375,53.2851875,203.755859375,53.2851875C203.755859375,53.2851875,203.755859375,55.3945625,203.755859375,55.3945625C203.755859375,55.5508125,203.78580859375,55.66279296875,203.845703125,55.7305C203.90559765625,55.79820703125,204.02018359375,55.8320625,204.189453125,55.8320625C204.314453125,55.8320625,204.42512890625,55.82294921875,204.521484375,55.80471875C204.521484375,55.80471875,204.521484375,56.6601875,204.521484375,56.6601875C204.30012890625,56.72789453125,204.072265625,56.76175,203.837890625,56.76175C203.04622265625,56.76175,202.642578125,56.36201171875,202.626953125,55.56253125C202.626953125,55.56253125,202.626953125,53.2851875,202.626953125,53.2851875C202.626953125,53.2851875,202.009765625,53.2851875,202.009765625,53.2851875C202.009765625,53.2851875,202.009765625,52.4570625,202.009765625,52.4570625C202.009765625,52.4570625,202.626953125,52.4570625,202.626953125,52.4570625C202.626953125,52.4570625,202.626953125,51.418,202.626953125,51.418C202.626953125,51.418,203.755859375,51.418,203.755859375,51.418Z M206.376953125,56.683625C206.376953125,56.683625,205.244140625,56.683625,205.244140625,56.683625C205.244140625,56.683625,205.244140625,52.4570625,205.244140625,52.4570625C205.244140625,52.4570625,206.376953125,52.4570625,206.376953125,52.4570625C206.376953125,52.4570625,206.376953125,56.683625,206.376953125,56.683625Z M205.177734375,51.3633125C205.177734375,51.19404296875,205.234375,51.05471875,205.34765625,50.94534375C205.4609375,50.83596875,205.615234375,50.78128125,205.810546875,50.78128125C206.00325390625,50.78128125,206.15690234375,50.83596875,206.271484375,50.94534375C206.38606640625,51.05471875,206.443359375,51.19404296875,206.443359375,51.3633125C206.443359375,51.5351875,206.38541796875,51.6758125,206.26953125,51.7851875C206.15364453125,51.8945625,206.00065234375,51.94925,205.810546875,51.94925C205.62044140625,51.94925,205.46744921875,51.8945625,205.3515625,51.7851875C205.23567578125,51.6758125,205.177734375,51.5351875,205.177734375,51.3633125Z M209.755859375,56.683625C209.70377734375,56.5820625,209.666015625,56.45576171875,209.642578125,56.30471875C209.369140625,56.60940625,209.013671875,56.76175,208.576171875,56.76175C208.162109375,56.76175,207.81901171875,56.64195703125,207.546875,56.402375C207.27473828125,56.16279296875,207.138671875,55.86070703125,207.138671875,55.496125C207.138671875,55.04820703125,207.3046875,54.70445703125,207.63671875,54.464875C207.96875,54.22529296875,208.44856640625,54.10419921875,209.076171875,54.10159375C209.076171875,54.10159375,209.595703125,54.10159375,209.595703125,54.10159375C209.595703125,54.10159375,209.595703125,53.85940625,209.595703125,53.85940625C209.595703125,53.66409375,209.54557421875,53.50784375,209.4453125,53.39065625C209.34505078125,53.27346875,209.18684765625,53.214875,208.970703125,53.214875C208.78059765625,53.214875,208.63151171875,53.26044921875,208.5234375,53.35159375C208.41536328125,53.44273828125,208.361328125,53.56773828125,208.361328125,53.72659375C208.361328125,53.72659375,207.232421875,53.72659375,207.232421875,53.72659375C207.232421875,53.48180078125,207.30794140625,53.25523828125,207.458984375,53.04690625C207.61002734375,52.83857421875,207.82356640625,52.67516015625,208.099609375,52.556671875C208.37565234375,52.43818359375,208.685546875,52.3789375,209.029296875,52.3789375C209.55012890625,52.3789375,209.96354296875,52.509796875,210.26953125,52.771515625C210.57551953125,53.033234375,210.728515625,53.40107421875,210.728515625,53.87503125C210.728515625,53.87503125,210.728515625,55.7070625,210.728515625,55.7070625C210.73112109375,56.10810546875,210.787109375,56.41148828125,210.896484375,56.61721875C210.896484375,56.61721875,210.896484375,56.683625,210.896484375,56.683625C210.896484375,56.683625,209.755859375,56.683625,209.755859375,56.683625Z M208.822265625,55.89846875C208.98893359375,55.89846875,209.142578125,55.861359375,209.283203125,55.787140625C209.423828125,55.712921875,209.52799609375,55.6133125,209.595703125,55.4883125C209.595703125,55.4883125,209.595703125,54.76175,209.595703125,54.76175C209.595703125,54.76175,209.173828125,54.76175,209.173828125,54.76175C208.60872265625,54.76175,208.30794140625,54.9570625,208.271484375,55.3476875C208.271484375,55.3476875,208.267578125,55.41409375,208.267578125,55.41409375C208.267578125,55.55471875,208.31705859375,55.67060546875,208.416015625,55.76175C208.51497265625,55.85289453125,208.650390625,55.89846875,208.822265625,55.89846875Z M212.837890625,51.418C212.837890625,51.418,212.837890625,52.4570625,212.837890625,52.4570625C212.837890625,52.4570625,213.560546875,52.4570625,213.560546875,52.4570625C213.560546875,52.4570625,213.560546875,53.2851875,213.560546875,53.2851875C213.560546875,53.2851875,212.837890625,53.2851875,212.837890625,53.2851875C212.837890625,53.2851875,212.837890625,55.3945625,212.837890625,55.3945625C212.837890625,55.5508125,212.86783984375,55.66279296875,212.927734375,55.7305C212.98762890625,55.79820703125,213.10221484375,55.8320625,213.271484375,55.8320625C213.396484375,55.8320625,213.50716015625,55.82294921875,213.603515625,55.80471875C213.603515625,55.80471875,213.603515625,56.6601875,213.603515625,56.6601875C213.38216015625,56.72789453125,213.154296875,56.76175,212.919921875,56.76175C212.12825390625,56.76175,211.724609375,56.36201171875,211.708984375,55.56253125C211.708984375,55.56253125,211.708984375,53.2851875,211.708984375,53.2851875C211.708984375,53.2851875,211.091796875,53.2851875,211.091796875,53.2851875C211.091796875,53.2851875,211.091796875,52.4570625,211.091796875,52.4570625C211.091796875,52.4570625,211.708984375,52.4570625,211.708984375,52.4570625C211.708984375,52.4570625,211.708984375,51.418,211.708984375,51.418C211.708984375,51.418,212.837890625,51.418,212.837890625,51.418Z M215.458984375,56.683625C215.458984375,56.683625,214.326171875,56.683625,214.326171875,56.683625C214.326171875,56.683625,214.326171875,52.4570625,214.326171875,52.4570625C214.326171875,52.4570625,215.458984375,52.4570625,215.458984375,52.4570625C215.458984375,52.4570625,215.458984375,56.683625,215.458984375,56.683625Z M214.259765625,51.3633125C214.259765625,51.19404296875,214.31640625,51.05471875,214.4296875,50.94534375C214.54296875,50.83596875,214.697265625,50.78128125,214.892578125,50.78128125C215.08528515625,50.78128125,215.23893359375,50.83596875,215.353515625,50.94534375C215.46809765625,51.05471875,215.525390625,51.19404296875,215.525390625,51.3633125C215.525390625,51.5351875,215.46744921875,51.6758125,215.3515625,51.7851875C215.23567578125,51.8945625,215.08268359375,51.94925,214.892578125,51.94925C214.70247265625,51.94925,214.54948046875,51.8945625,214.43359375,51.7851875C214.31770703125,51.6758125,214.259765625,51.5351875,214.259765625,51.3633125Z M217.970703125,55.30471875C217.970703125,55.30471875,218.755859375,52.4570625,218.755859375,52.4570625C218.755859375,52.4570625,219.935546875,52.4570625,219.935546875,52.4570625C219.935546875,52.4570625,218.509765625,56.683625,218.509765625,56.683625C218.509765625,56.683625,217.431640625,56.683625,217.431640625,56.683625C217.431640625,56.683625,216.005859375,52.4570625,216.005859375,52.4570625C216.005859375,52.4570625,217.185546875,52.4570625,217.185546875,52.4570625C217.185546875,52.4570625,217.970703125,55.30471875,217.970703125,55.30471875Z M222.181640625,56.76175C221.56184765625,56.76175,221.05729296875,56.57164453125,220.66796875,56.1914375C220.27864453125,55.81123046875,220.083984375,55.30471875,220.083984375,54.67190625C220.083984375,54.67190625,220.083984375,54.56253125,220.083984375,54.56253125C220.083984375,54.13805078125,220.166015625,53.75849609375,220.330078125,53.423859375C220.494140625,53.08922265625,220.7265625,52.83141015625,221.02734375,52.650421875C221.328125,52.46943359375,221.67122265625,52.3789375,222.056640625,52.3789375C222.634765625,52.3789375,223.08984375,52.56123046875,223.421875,52.9258125C223.75390625,53.29039453125,223.919921875,53.80732421875,223.919921875,54.47659375C223.919921875,54.47659375,223.919921875,54.93753125,223.919921875,54.93753125C223.919921875,54.93753125,221.228515625,54.93753125,221.228515625,54.93753125C221.26497265625,55.21357421875,221.375,55.43492578125,221.55859375,55.60159375C221.7421875,55.76826171875,221.974609375,55.85159375,222.255859375,55.85159375C222.69075390625,55.85159375,223.03059765625,55.69404296875,223.275390625,55.3789375C223.275390625,55.3789375,223.830078125,56.00003125,223.830078125,56.00003125C223.66080859375,56.23961328125,223.431640625,56.42646484375,223.142578125,56.560578125C222.853515625,56.69469140625,222.533203125,56.76175,222.181640625,56.76175Z M222.052734375,53.293C221.82877734375,53.293,221.64713671875,53.36851953125,221.5078125,53.5195625C221.36848828125,53.67060546875,221.279296875,53.88675,221.240234375,54.168C221.240234375,54.168,222.810546875,54.168,222.810546875,54.168C222.810546875,54.168,222.810546875,54.07815625,222.810546875,54.07815625C222.80533984375,53.82815625,222.73762890625,53.634796875,222.607421875,53.498078125C222.47721484375,53.361359375,222.29231640625,53.293,222.052734375,53.293Z"/></svg>
