<?xml version="1.0"?>
<svg version="1.1" xmlns="http://www.w3.org/2000/svg" viewBox="0 0 400 100" role="img" aria-label="The University of Iowa College of Law"><path fill="#000000" d="M172.51,13.23h-1.73V25.69h1.73v4.54H163V25.69h1.73V13.23H163V8.77h9.51Z"/><path fill="#000000" d="M185.29,30.23H178.4c-2.5,0-4.14-1.64-4.14-4.33V13.09a4,4,0,0,1,3.66-4.31,3.85,3.85,0,0,1,.48,0h6.89c2.5,0,4.13,1.67,4.13,4.32V25.87a4,4,0,0,1-3.62,4.35A4.34,4.34,0,0,1,185.29,30.23Zm-2-4.51V13.23h-3V25.69Z"/><path fill="#000000" d="M192.13,13.24h-1.52V8.78h9v4.46h-1.7l1.55,10.31,3.21-14.79h4.57l3.43,14.79,1.25-10.31h-1.57V8.78h8.89v4.46h-1.48l-2.69,17h-7.25L205,17.58l-2.88,12.66h-7Z"/><path fill="#000000" d="M217.67,25.69h1.63l3.25-16.92h9.72l3.21,16.92H237v4.54h-7.26L229.06,25h-3.61l-.65,5.22h-7.13Zm11-4.63-1.39-8.65-1.42,8.65Z"/><rect x="159" y="35.16" width="82" height="0.733" style="fill:#000000"/><path fill="#000000" d="M178.814453125,45.29484375C178.77018359375,45.90682421875,178.54426953125,46.38859375,178.13671875,46.74015625C177.72916796875,47.09171875,177.19205859375,47.2675,176.525390625,47.2675C175.79622265625,47.2675,175.22265625,47.02205859375,174.8046875,46.531171875C174.38671875,46.04028515625,174.177734375,45.36645703125,174.177734375,44.5096875C174.177734375,44.5096875,174.177734375,44.16203125,174.177734375,44.16203125C174.177734375,43.61515625,174.27408984375,43.13338671875,174.466796875,42.71671875C174.65950390625,42.30005078125,174.93489453125,41.980390625,175.29296875,41.757734375C175.65104296875,41.535078125,176.06705859375,41.42375,176.541015625,41.42375C177.197265625,41.42375,177.72591015625,41.59953125,178.126953125,41.95109375C178.52799609375,42.30265625,178.759765625,42.79614453125,178.822265625,43.4315625C178.822265625,43.4315625,177.650390625,43.4315625,177.650390625,43.4315625C177.62174609375,43.064375,177.51953125,42.79809765625,177.34375,42.632734375C177.16796875,42.46737109375,176.900390625,42.3846875,176.541015625,42.3846875C176.150390625,42.3846875,175.85807421875,42.52466015625,175.6640625,42.804609375C175.47005078125,43.08455859375,175.37044140625,43.51880078125,175.365234375,44.10734375C175.365234375,44.10734375,175.365234375,44.53703125,175.365234375,44.53703125C175.365234375,45.15161328125,175.45833203125,45.60083203125,175.64453125,45.8846875C175.83073046875,46.16854296875,176.12434765625,46.31046875,176.525390625,46.31046875C176.88737109375,46.31046875,177.15755078125,46.22778515625,177.3359375,46.062421875C177.51432421875,45.89705859375,177.61653515625,45.64119921875,177.642578125,45.29484375C177.642578125,45.29484375,178.814453125,45.29484375,178.814453125,45.29484375Z M179.333984375,45.03703125C179.333984375,44.61776171875,179.41471484375,44.2440625,179.576171875,43.9159375C179.73762890625,43.5878125,179.97005078125,43.33390625,180.2734375,43.15421875C180.57682421875,42.97453125,180.92903515625,42.8846875,181.330078125,42.8846875C181.900390625,42.8846875,182.36588671875,43.05916796875,182.7265625,43.408125C183.08723828125,43.75708203125,183.28841015625,44.23104296875,183.330078125,44.83C183.330078125,44.83,183.337890625,45.1190625,183.337890625,45.1190625C183.337890625,45.7675,183.15690234375,46.28768359375,182.794921875,46.679609375C182.43294140625,47.07153515625,181.947265625,47.2675,181.337890625,47.2675C180.728515625,47.2675,180.2421875,47.0721875,179.87890625,46.6815625C179.515625,46.2909375,179.333984375,45.7596875,179.333984375,45.0878125C179.333984375,45.0878125,179.333984375,45.03703125,179.333984375,45.03703125Z M180.462890625,45.1190625C180.462890625,45.52010546875,180.53841015625,45.82674609375,180.689453125,46.038984375C180.84049609375,46.25122265625,181.056640625,46.35734375,181.337890625,46.35734375C181.611328125,46.35734375,181.82487109375,46.25252734375,181.978515625,46.042890625C182.13216015625,45.83325390625,182.208984375,45.49796875,182.208984375,45.03703125C182.208984375,44.64380078125,182.13216015625,44.33911328125,181.978515625,44.12296875C181.82487109375,43.90682421875,181.60872265625,43.79875,181.330078125,43.79875C181.05403515625,43.79875,180.84049609375,43.906171875,180.689453125,44.121015625C180.53841015625,44.335859375,180.462890625,44.66854296875,180.462890625,45.1190625Z M185.224609375,47.189375C185.224609375,47.189375,184.091796875,47.189375,184.091796875,47.189375C184.091796875,47.189375,184.091796875,41.189375,184.091796875,41.189375C184.091796875,41.189375,185.224609375,41.189375,185.224609375,41.189375C185.224609375,41.189375,185.224609375,47.189375,185.224609375,47.189375Z M187.345703125,47.189375C187.345703125,47.189375,186.212890625,47.189375,186.212890625,47.189375C186.212890625,47.189375,186.212890625,41.189375,186.212890625,41.189375C186.212890625,41.189375,187.345703125,41.189375,187.345703125,41.189375C187.345703125,41.189375,187.345703125,47.189375,187.345703125,47.189375Z M190.220703125,47.2675C189.60091015625,47.2675,189.09635546875,47.07739453125,188.70703125,46.6971875C188.31770703125,46.31698046875,188.123046875,45.81046875,188.123046875,45.17765625C188.123046875,45.17765625,188.123046875,45.06828125,188.123046875,45.06828125C188.123046875,44.64380078125,188.205078125,44.26424609375,188.369140625,43.929609375C188.533203125,43.59497265625,188.765625,43.33716015625,189.06640625,43.156171875C189.3671875,42.97518359375,189.71028515625,42.8846875,190.095703125,42.8846875C190.673828125,42.8846875,191.12890625,43.06698046875,191.4609375,43.4315625C191.79296875,43.79614453125,191.958984375,44.31307421875,191.958984375,44.98234375C191.958984375,44.98234375,191.958984375,45.44328125,191.958984375,45.44328125C191.958984375,45.44328125,189.267578125,45.44328125,189.267578125,45.44328125C189.30403515625,45.71932421875,189.4140625,45.94067578125,189.59765625,46.10734375C189.78125,46.27401171875,190.013671875,46.35734375,190.294921875,46.35734375C190.72981640625,46.35734375,191.06966015625,46.19979296875,191.314453125,45.8846875C191.314453125,45.8846875,191.869140625,46.50578125,191.869140625,46.50578125C191.69987109375,46.74536328125,191.470703125,46.93221484375,191.181640625,47.066328125C190.892578125,47.20044140625,190.572265625,47.2675,190.220703125,47.2675Z M190.091796875,43.79875C189.86783984375,43.79875,189.68619921875,43.87426953125,189.546875,44.0253125C189.40755078125,44.17635546875,189.318359375,44.3925,189.279296875,44.67375C189.279296875,44.67375,190.849609375,44.67375,190.849609375,44.67375C190.849609375,44.67375,190.849609375,44.58390625,190.849609375,44.58390625C190.84440234375,44.33390625,190.77669140625,44.140546875,190.646484375,44.003828125C190.51627734375,43.867109375,190.33137890625,43.79875,190.091796875,43.79875Z M192.552734375,45.04484375C192.552734375,44.39640625,192.70703125,43.87426953125,193.015625,43.4784375C193.32421875,43.08260546875,193.740234375,42.8846875,194.263671875,42.8846875C194.72721484375,42.8846875,195.087890625,43.04354296875,195.345703125,43.36125C195.345703125,43.36125,195.392578125,42.9628125,195.392578125,42.9628125C195.392578125,42.9628125,196.416015625,42.9628125,196.416015625,42.9628125C196.416015625,42.9628125,196.416015625,47.04875,196.416015625,47.04875C196.416015625,47.41854296875,196.33203125,47.74015625,196.1640625,48.01359375C195.99609375,48.28703125,195.759765625,48.49536328125,195.455078125,48.63859375C195.150390625,48.78182421875,194.79362109375,48.8534375,194.384765625,48.8534375C194.07487109375,48.8534375,193.77278515625,48.79158984375,193.478515625,48.667890625C193.18424609375,48.54419140625,192.96158984375,48.3846875,192.810546875,48.189375C192.810546875,48.189375,193.310546875,47.501875,193.310546875,47.501875C193.591796875,47.81698046875,193.93294140625,47.97453125,194.333984375,47.97453125C194.63346484375,47.97453125,194.86653515625,47.894453125,195.033203125,47.734296875C195.19987109375,47.574140625,195.283203125,47.34692578125,195.283203125,47.05265625C195.283203125,47.05265625,195.283203125,46.82609375,195.283203125,46.82609375C195.02278515625,47.12036328125,194.68033984375,47.2675,194.255859375,47.2675C193.748046875,47.2675,193.33723828125,47.06893359375,193.0234375,46.671796875C192.70963671875,46.27466015625,192.552734375,45.74796875,192.552734375,45.09171875C192.552734375,45.09171875,192.552734375,45.04484375,192.552734375,45.04484375Z M193.681640625,45.126875C193.681640625,45.5096875,193.75846484375,45.80981640625,193.912109375,46.027265625C194.06575390625,46.24471484375,194.27669140625,46.3534375,194.544921875,46.3534375C194.888671875,46.3534375,195.134765625,46.22453125,195.283203125,45.96671875C195.283203125,45.96671875,195.283203125,44.189375,195.283203125,44.189375C195.13216015625,43.9315625,194.888671875,43.80265625,194.552734375,43.80265625C194.28190234375,43.80265625,194.06901171875,43.91333203125,193.9140625,44.1346875C193.75911328125,44.35604296875,193.681640625,44.68676953125,193.681640625,45.126875Z M199.228515625,47.2675C198.60872265625,47.2675,198.10416796875,47.07739453125,197.71484375,46.6971875C197.32551953125,46.31698046875,197.130859375,45.81046875,197.130859375,45.17765625C197.130859375,45.17765625,197.130859375,45.06828125,197.130859375,45.06828125C197.130859375,44.64380078125,197.212890625,44.26424609375,197.376953125,43.929609375C197.541015625,43.59497265625,197.7734375,43.33716015625,198.07421875,43.156171875C198.375,42.97518359375,198.71809765625,42.8846875,199.103515625,42.8846875C199.681640625,42.8846875,200.13671875,43.06698046875,200.46875,43.4315625C200.80078125,43.79614453125,200.966796875,44.31307421875,200.966796875,44.98234375C200.966796875,44.98234375,200.966796875,45.44328125,200.966796875,45.44328125C200.966796875,45.44328125,198.275390625,45.44328125,198.275390625,45.44328125C198.31184765625,45.71932421875,198.421875,45.94067578125,198.60546875,46.10734375C198.7890625,46.27401171875,199.021484375,46.35734375,199.302734375,46.35734375C199.73762890625,46.35734375,200.07747265625,46.19979296875,200.322265625,45.8846875C200.322265625,45.8846875,200.876953125,46.50578125,200.876953125,46.50578125C200.70768359375,46.74536328125,200.478515625,46.93221484375,200.189453125,47.066328125C199.900390625,47.20044140625,199.580078125,47.2675,199.228515625,47.2675Z M199.099609375,43.79875C198.87565234375,43.79875,198.69401171875,43.87426953125,198.5546875,44.0253125C198.41536328125,44.17635546875,198.326171875,44.3925,198.287109375,44.67375C198.287109375,44.67375,199.857421875,44.67375,199.857421875,44.67375C199.857421875,44.67375,199.857421875,44.58390625,199.857421875,44.58390625C199.85221484375,44.33390625,199.78450390625,44.140546875,199.654296875,44.003828125C199.52408984375,43.867109375,199.33919140625,43.79875,199.099609375,43.79875Z M200.783203125,47.189375Z M203.423828125,45.03703125C203.423828125,44.61776171875,203.50455859375,44.2440625,203.666015625,43.9159375C203.82747265625,43.5878125,204.05989453125,43.33390625,204.36328125,43.15421875C204.66666796875,42.97453125,205.01887890625,42.8846875,205.419921875,42.8846875C205.990234375,42.8846875,206.45573046875,43.05916796875,206.81640625,43.408125C207.17708203125,43.75708203125,207.37825390625,44.23104296875,207.419921875,44.83C207.419921875,44.83,207.427734375,45.1190625,207.427734375,45.1190625C207.427734375,45.7675,207.24674609375,46.28768359375,206.884765625,46.679609375C206.52278515625,47.07153515625,206.037109375,47.2675,205.427734375,47.2675C204.818359375,47.2675,204.33203125,47.0721875,203.96875,46.6815625C203.60546875,46.2909375,203.423828125,45.7596875,203.423828125,45.0878125C203.423828125,45.0878125,203.423828125,45.03703125,203.423828125,45.03703125Z M204.552734375,45.1190625C204.552734375,45.52010546875,204.62825390625,45.82674609375,204.779296875,46.038984375C204.93033984375,46.25122265625,205.146484375,46.35734375,205.427734375,46.35734375C205.701171875,46.35734375,205.91471484375,46.25252734375,206.068359375,46.042890625C206.22200390625,45.83325390625,206.298828125,45.49796875,206.298828125,45.03703125C206.298828125,44.64380078125,206.22200390625,44.33911328125,206.068359375,44.12296875C205.91471484375,43.90682421875,205.69856640625,43.79875,205.419921875,43.79875C205.14387890625,43.79875,204.93033984375,43.906171875,204.779296875,44.121015625C204.62825390625,44.335859375,204.552734375,44.66854296875,204.552734375,45.1190625Z M208.431640625,47.189375C208.431640625,47.189375,208.431640625,43.7909375,208.431640625,43.7909375C208.431640625,43.7909375,207.802734375,43.7909375,207.802734375,43.7909375C207.802734375,43.7909375,207.802734375,42.9628125,207.802734375,42.9628125C207.802734375,42.9628125,208.431640625,42.9628125,208.431640625,42.9628125C208.431640625,42.9628125,208.431640625,42.6034375,208.431640625,42.6034375C208.431640625,42.12948046875,208.56770703125,41.761640625,208.83984375,41.499921875C209.11198046875,41.238203125,209.49283984375,41.10734375,209.982421875,41.10734375C210.138671875,41.10734375,210.330078125,41.13338671875,210.556640625,41.18546875C210.556640625,41.18546875,210.544921875,42.06046875,210.544921875,42.06046875C210.451171875,42.03703125,210.33658984375,42.0253125,210.201171875,42.0253125C209.77669140625,42.0253125,209.564453125,42.22453125,209.564453125,42.62296875C209.564453125,42.62296875,209.564453125,42.9628125,209.564453125,42.9628125C209.564453125,42.9628125,210.404296875,42.9628125,210.404296875,42.9628125C210.404296875,42.9628125,210.404296875,43.7909375,210.404296875,43.7909375C210.404296875,43.7909375,209.564453125,43.7909375,209.564453125,43.7909375C209.564453125,43.7909375,209.564453125,47.189375,209.564453125,47.189375C209.564453125,47.189375,208.431640625,47.189375,208.431640625,47.189375Z M210.166015625,47.189375Z M214.228515625,46.24796875C214.228515625,46.24796875,216.716796875,46.24796875,216.716796875,46.24796875C216.716796875,46.24796875,216.716796875,47.189375,216.716796875,47.189375C216.716796875,47.189375,213.056640625,47.189375,213.056640625,47.189375C213.056640625,47.189375,213.056640625,41.501875,213.056640625,41.501875C213.056640625,41.501875,214.228515625,41.501875,214.228515625,41.501875C214.228515625,41.501875,214.228515625,46.24796875,214.228515625,46.24796875Z M219.763671875,47.189375C219.71158984375,47.0878125,219.673828125,46.96151171875,219.650390625,46.81046875C219.376953125,47.11515625,219.021484375,47.2675,218.583984375,47.2675C218.169921875,47.2675,217.82682421875,47.14770703125,217.5546875,46.908125C217.28255078125,46.66854296875,217.146484375,46.36645703125,217.146484375,46.001875C217.146484375,45.55395703125,217.3125,45.21020703125,217.64453125,44.970625C217.9765625,44.73104296875,218.45637890625,44.60994921875,219.083984375,44.60734375C219.083984375,44.60734375,219.603515625,44.60734375,219.603515625,44.60734375C219.603515625,44.60734375,219.603515625,44.36515625,219.603515625,44.36515625C219.603515625,44.16984375,219.55338671875,44.01359375,219.453125,43.89640625C219.35286328125,43.77921875,219.19466015625,43.720625,218.978515625,43.720625C218.78841015625,43.720625,218.63932421875,43.76619921875,218.53125,43.85734375C218.42317578125,43.94848828125,218.369140625,44.07348828125,218.369140625,44.23234375C218.369140625,44.23234375,217.240234375,44.23234375,217.240234375,44.23234375C217.240234375,43.98755078125,217.31575390625,43.76098828125,217.466796875,43.55265625C217.61783984375,43.34432421875,217.83137890625,43.18091015625,218.107421875,43.062421875C218.38346484375,42.94393359375,218.693359375,42.8846875,219.037109375,42.8846875C219.55794140625,42.8846875,219.97135546875,43.015546875,220.27734375,43.277265625C220.58333203125,43.538984375,220.736328125,43.90682421875,220.736328125,44.38078125C220.736328125,44.38078125,220.736328125,46.2128125,220.736328125,46.2128125C220.73893359375,46.61385546875,220.794921875,46.91723828125,220.904296875,47.12296875C220.904296875,47.12296875,220.904296875,47.189375,220.904296875,47.189375C220.904296875,47.189375,219.763671875,47.189375,219.763671875,47.189375Z M218.830078125,46.40421875C218.99674609375,46.40421875,219.150390625,46.367109375,219.291015625,46.292890625C219.431640625,46.218671875,219.53580859375,46.1190625,219.603515625,45.9940625C219.603515625,45.9940625,219.603515625,45.2675,219.603515625,45.2675C219.603515625,45.2675,219.181640625,45.2675,219.181640625,45.2675C218.61653515625,45.2675,218.31575390625,45.4628125,218.279296875,45.8534375C218.279296875,45.8534375,218.275390625,45.91984375,218.275390625,45.91984375C218.275390625,46.06046875,218.32487109375,46.17635546875,218.423828125,46.2675C218.52278515625,46.35864453125,218.658203125,46.40421875,218.830078125,46.40421875Z M225.169921875,45.65421875C225.169921875,45.65421875,225.724609375,42.9628125,225.724609375,42.9628125C225.724609375,42.9628125,226.814453125,42.9628125,226.814453125,42.9628125C226.814453125,42.9628125,225.736328125,47.189375,225.736328125,47.189375C225.736328125,47.189375,224.791015625,47.189375,224.791015625,47.189375C224.791015625,47.189375,223.990234375,44.52921875,223.990234375,44.52921875C223.990234375,44.52921875,223.189453125,47.189375,223.189453125,47.189375C223.189453125,47.189375,222.248046875,47.189375,222.248046875,47.189375C222.248046875,47.189375,221.169921875,42.9628125,221.169921875,42.9628125C221.169921875,42.9628125,222.259765625,42.9628125,222.259765625,42.9628125C222.259765625,42.9628125,222.810546875,45.6503125,222.810546875,45.6503125C222.810546875,45.6503125,223.583984375,42.9628125,223.583984375,42.9628125C223.583984375,42.9628125,224.400390625,42.9628125,224.400390625,42.9628125C224.400390625,42.9628125,225.169921875,45.65421875,225.169921875,45.65421875Z"/></svg>
