<?xml version="1.0"?>
<svg version="1.1" xmlns="http://www.w3.org/2000/svg" viewBox="0 0 400 100" role="img" aria-label="The University of Iowa Law Library"><path fill="#000000" d="M172.51,13.23h-1.73V25.69h1.73v4.54H163V25.69h1.73V13.23H163V8.77h9.51Z"/><path fill="#000000" d="M185.29,30.23H178.4c-2.5,0-4.14-1.64-4.14-4.33V13.09a4,4,0,0,1,3.66-4.31,3.85,3.85,0,0,1,.48,0h6.89c2.5,0,4.13,1.67,4.13,4.32V25.87a4,4,0,0,1-3.62,4.35A4.34,4.34,0,0,1,185.29,30.23Zm-2-4.51V13.23h-3V25.69Z"/><path fill="#000000" d="M192.13,13.24h-1.52V8.78h9v4.46h-1.7l1.55,10.31,3.21-14.79h4.57l3.43,14.79,1.25-10.31h-1.57V8.78h8.89v4.46h-1.48l-2.69,17h-7.25L205,17.58l-2.88,12.66h-7Z"/><path fill="#000000" d="M217.67,25.69h1.63l3.25-16.92h9.72l3.21,16.92H237v4.54h-7.26L229.06,25h-3.61l-.65,5.22h-7.13Zm11-4.63-1.39-8.65-1.42,8.65Z"/><rect x="159" y="35.16" width="82" height="0.733" style="fill:#000000"/><path fill="#000000" d="M181.03515625,46.24796875C181.03515625,46.24796875,183.5234375,46.24796875,183.5234375,46.24796875C183.5234375,46.24796875,183.5234375,47.189375,183.5234375,47.189375C183.5234375,47.189375,179.86328125,47.189375,179.86328125,47.189375C179.86328125,47.189375,179.86328125,41.501875,179.86328125,41.501875C179.86328125,41.501875,181.03515625,41.501875,181.03515625,41.501875C181.03515625,41.501875,181.03515625,46.24796875,181.03515625,46.24796875Z M186.5703125,47.189375C186.51823046875,47.0878125,186.48046875,46.96151171875,186.45703125,46.81046875C186.18359375,47.11515625,185.828125,47.2675,185.390625,47.2675C184.9765625,47.2675,184.63346484375,47.14770703125,184.361328125,46.908125C184.08919140625,46.66854296875,183.953125,46.36645703125,183.953125,46.001875C183.953125,45.55395703125,184.119140625,45.21020703125,184.451171875,44.970625C184.783203125,44.73104296875,185.26301953125,44.60994921875,185.890625,44.60734375C185.890625,44.60734375,186.41015625,44.60734375,186.41015625,44.60734375C186.41015625,44.60734375,186.41015625,44.36515625,186.41015625,44.36515625C186.41015625,44.16984375,186.36002734375,44.01359375,186.259765625,43.89640625C186.15950390625,43.77921875,186.00130078125,43.720625,185.78515625,43.720625C185.59505078125,43.720625,185.44596484375,43.76619921875,185.337890625,43.85734375C185.22981640625,43.94848828125,185.17578125,44.07348828125,185.17578125,44.23234375C185.17578125,44.23234375,184.046875,44.23234375,184.046875,44.23234375C184.046875,43.98755078125,184.12239453125,43.76098828125,184.2734375,43.55265625C184.42448046875,43.34432421875,184.63801953125,43.18091015625,184.9140625,43.062421875C185.19010546875,42.94393359375,185.5,42.8846875,185.84375,42.8846875C186.36458203125,42.8846875,186.77799609375,43.015546875,187.083984375,43.277265625C187.38997265625,43.538984375,187.54296875,43.90682421875,187.54296875,44.38078125C187.54296875,44.38078125,187.54296875,46.2128125,187.54296875,46.2128125C187.54557421875,46.61385546875,187.6015625,46.91723828125,187.7109375,47.12296875C187.7109375,47.12296875,187.7109375,47.189375,187.7109375,47.189375C187.7109375,47.189375,186.5703125,47.189375,186.5703125,47.189375Z M185.63671875,46.40421875C185.80338671875,46.40421875,185.95703125,46.367109375,186.09765625,46.292890625C186.23828125,46.218671875,186.34244921875,46.1190625,186.41015625,45.9940625C186.41015625,45.9940625,186.41015625,45.2675,186.41015625,45.2675C186.41015625,45.2675,185.98828125,45.2675,185.98828125,45.2675C185.42317578125,45.2675,185.12239453125,45.4628125,185.0859375,45.8534375C185.0859375,45.8534375,185.08203125,45.91984375,185.08203125,45.91984375C185.08203125,46.06046875,185.13151171875,46.17635546875,185.23046875,46.2675C185.32942578125,46.35864453125,185.46484375,46.40421875,185.63671875,46.40421875Z M191.9765625,45.65421875C191.9765625,45.65421875,192.53125,42.9628125,192.53125,42.9628125C192.53125,42.9628125,193.62109375,42.9628125,193.62109375,42.9628125C193.62109375,42.9628125,192.54296875,47.189375,192.54296875,47.189375C192.54296875,47.189375,191.59765625,47.189375,191.59765625,47.189375C191.59765625,47.189375,190.796875,44.52921875,190.796875,44.52921875C190.796875,44.52921875,189.99609375,47.189375,189.99609375,47.189375C189.99609375,47.189375,189.0546875,47.189375,189.0546875,47.189375C189.0546875,47.189375,187.9765625,42.9628125,187.9765625,42.9628125C187.9765625,42.9628125,189.06640625,42.9628125,189.06640625,42.9628125C189.06640625,42.9628125,189.6171875,45.6503125,189.6171875,45.6503125C189.6171875,45.6503125,190.390625,42.9628125,190.390625,42.9628125C190.390625,42.9628125,191.20703125,42.9628125,191.20703125,42.9628125C191.20703125,42.9628125,191.9765625,45.65421875,191.9765625,45.65421875Z M193.35546875,47.189375Z M197.41796875,46.24796875C197.41796875,46.24796875,199.90625,46.24796875,199.90625,46.24796875C199.90625,46.24796875,199.90625,47.189375,199.90625,47.189375C199.90625,47.189375,196.24609375,47.189375,196.24609375,47.189375C196.24609375,47.189375,196.24609375,41.501875,196.24609375,41.501875C196.24609375,41.501875,197.41796875,41.501875,197.41796875,41.501875C197.41796875,41.501875,197.41796875,46.24796875,197.41796875,46.24796875Z M201.6953125,47.189375C201.6953125,47.189375,200.5625,47.189375,200.5625,47.189375C200.5625,47.189375,200.5625,42.9628125,200.5625,42.9628125C200.5625,42.9628125,201.6953125,42.9628125,201.6953125,42.9628125C201.6953125,42.9628125,201.6953125,47.189375,201.6953125,47.189375Z M200.49609375,41.8690625C200.49609375,41.69979296875,200.552734375,41.56046875,200.666015625,41.45109375C200.779296875,41.34171875,200.93359375,41.28703125,201.12890625,41.28703125C201.32161328125,41.28703125,201.47526171875,41.34171875,201.58984375,41.45109375C201.70442578125,41.56046875,201.76171875,41.69979296875,201.76171875,41.8690625C201.76171875,42.0409375,201.70377734375,42.1815625,201.587890625,42.2909375C201.47200390625,42.4003125,201.31901171875,42.455,201.12890625,42.455C200.93880078125,42.455,200.78580859375,42.4003125,200.669921875,42.2909375C200.55403515625,42.1815625,200.49609375,42.0409375,200.49609375,41.8690625Z M206.43359375,45.11515625C206.43359375,45.79223828125,206.2890625,46.320234375,206,46.699140625C205.7109375,47.078046875,205.30729296875,47.2675,204.7890625,47.2675C204.33073046875,47.2675,203.96484375,47.09171875,203.69140625,46.74015625C203.69140625,46.74015625,203.640625,47.189375,203.640625,47.189375C203.640625,47.189375,202.625,47.189375,202.625,47.189375C202.625,47.189375,202.625,41.189375,202.625,41.189375C202.625,41.189375,203.75390625,41.189375,203.75390625,41.189375C203.75390625,41.189375,203.75390625,43.34171875,203.75390625,43.34171875C204.01432421875,43.03703125,204.35676953125,42.8846875,204.78125,42.8846875C205.296875,42.8846875,205.701171875,43.074140625,205.994140625,43.453046875C206.287109375,43.831953125,206.43359375,44.36515625,206.43359375,45.05265625C206.43359375,45.05265625,206.43359375,45.11515625,206.43359375,45.11515625Z M205.3046875,45.033125C205.3046875,44.60604296875,205.23698046875,44.29419140625,205.1015625,44.097578125C204.96614453125,43.90096484375,204.76432421875,43.80265625,204.49609375,43.80265625C204.13671875,43.80265625,203.88932421875,43.94979296875,203.75390625,44.2440625C203.75390625,44.2440625,203.75390625,45.91203125,203.75390625,45.91203125C203.89192578125,46.20890625,204.14192578125,46.35734375,204.50390625,46.35734375C204.86848828125,46.35734375,205.10807421875,46.17765625,205.22265625,45.81828125C205.27734375,45.64640625,205.3046875,45.3846875,205.3046875,45.033125Z M209.50390625,44.02140625C209.35026171875,44.00057421875,209.21484375,43.99015625,209.09765625,43.99015625C208.67057421875,43.99015625,208.390625,44.1346875,208.2578125,44.42375C208.2578125,44.42375,208.2578125,47.189375,208.2578125,47.189375C208.2578125,47.189375,207.12890625,47.189375,207.12890625,47.189375C207.12890625,47.189375,207.12890625,42.9628125,207.12890625,42.9628125C207.12890625,42.9628125,208.1953125,42.9628125,208.1953125,42.9628125C208.1953125,42.9628125,208.2265625,43.46671875,208.2265625,43.46671875C208.453125,43.07869921875,208.76692578125,42.8846875,209.16796875,42.8846875C209.29296875,42.8846875,209.41015625,42.90161328125,209.51953125,42.93546875C209.51953125,42.93546875,209.50390625,44.02140625,209.50390625,44.02140625Z M212.51953125,47.189375C212.46744921875,47.0878125,212.4296875,46.96151171875,212.40625,46.81046875C212.1328125,47.11515625,211.77734375,47.2675,211.33984375,47.2675C210.92578125,47.2675,210.58268359375,47.14770703125,210.310546875,46.908125C210.03841015625,46.66854296875,209.90234375,46.36645703125,209.90234375,46.001875C209.90234375,45.55395703125,210.068359375,45.21020703125,210.400390625,44.970625C210.732421875,44.73104296875,211.21223828125,44.60994921875,211.83984375,44.60734375C211.83984375,44.60734375,212.359375,44.60734375,212.359375,44.60734375C212.359375,44.60734375,212.359375,44.36515625,212.359375,44.36515625C212.359375,44.16984375,212.30924609375,44.01359375,212.208984375,43.89640625C212.10872265625,43.77921875,211.95051953125,43.720625,211.734375,43.720625C211.54426953125,43.720625,211.39518359375,43.76619921875,211.287109375,43.85734375C211.17903515625,43.94848828125,211.125,44.07348828125,211.125,44.23234375C211.125,44.23234375,209.99609375,44.23234375,209.99609375,44.23234375C209.99609375,43.98755078125,210.07161328125,43.76098828125,210.22265625,43.55265625C210.37369921875,43.34432421875,210.58723828125,43.18091015625,210.86328125,43.062421875C211.13932421875,42.94393359375,211.44921875,42.8846875,211.79296875,42.8846875C212.31380078125,42.8846875,212.72721484375,43.015546875,213.033203125,43.277265625C213.33919140625,43.538984375,213.4921875,43.90682421875,213.4921875,44.38078125C213.4921875,44.38078125,213.4921875,46.2128125,213.4921875,46.2128125C213.49479296875,46.61385546875,213.55078125,46.91723828125,213.66015625,47.12296875C213.66015625,47.12296875,213.66015625,47.189375,213.66015625,47.189375C213.66015625,47.189375,212.51953125,47.189375,212.51953125,47.189375Z M211.5859375,46.40421875C211.75260546875,46.40421875,211.90625,46.367109375,212.046875,46.292890625C212.1875,46.218671875,212.29166796875,46.1190625,212.359375,45.9940625C212.359375,45.9940625,212.359375,45.2675,212.359375,45.2675C212.359375,45.2675,211.9375,45.2675,211.9375,45.2675C211.37239453125,45.2675,211.07161328125,45.4628125,211.03515625,45.8534375C211.03515625,45.8534375,211.03125,45.91984375,211.03125,45.91984375C211.03125,46.06046875,211.08073046875,46.17635546875,211.1796875,46.2675C211.27864453125,46.35864453125,211.4140625,46.40421875,211.5859375,46.40421875Z M216.7421875,44.02140625C216.58854296875,44.00057421875,216.453125,43.99015625,216.3359375,43.99015625C215.90885546875,43.99015625,215.62890625,44.1346875,215.49609375,44.42375C215.49609375,44.42375,215.49609375,47.189375,215.49609375,47.189375C215.49609375,47.189375,214.3671875,47.189375,214.3671875,47.189375C214.3671875,47.189375,214.3671875,42.9628125,214.3671875,42.9628125C214.3671875,42.9628125,215.43359375,42.9628125,215.43359375,42.9628125C215.43359375,42.9628125,215.46484375,43.46671875,215.46484375,43.46671875C215.69140625,43.07869921875,216.00520703125,42.8846875,216.40625,42.8846875C216.53125,42.8846875,216.6484375,42.90161328125,216.7578125,42.93546875C216.7578125,42.93546875,216.7421875,44.02140625,216.7421875,44.02140625Z M219.27734375,45.59171875C219.27734375,45.59171875,220.05859375,42.9628125,220.05859375,42.9628125C220.05859375,42.9628125,221.26953125,42.9628125,221.26953125,42.9628125C221.26953125,42.9628125,219.5703125,47.845625,219.5703125,47.845625C219.5703125,47.845625,219.4765625,48.06828125,219.4765625,48.06828125C219.22395703125,48.62036328125,218.80729296875,48.89640625,218.2265625,48.89640625C218.0625,48.89640625,217.89583203125,48.87166796875,217.7265625,48.8221875C217.7265625,48.8221875,217.7265625,47.96671875,217.7265625,47.96671875C217.7265625,47.96671875,217.8984375,47.970625,217.8984375,47.970625C218.11198046875,47.970625,218.271484375,47.93807421875,218.376953125,47.87296875C218.482421875,47.80786328125,218.56510546875,47.69979296875,218.625,47.54875C218.625,47.54875,218.7578125,47.20109375,218.7578125,47.20109375C218.7578125,47.20109375,217.27734375,42.9628125,217.27734375,42.9628125C217.27734375,42.9628125,218.4921875,42.9628125,218.4921875,42.9628125C218.4921875,42.9628125,219.27734375,45.59171875,219.27734375,45.59171875Z"/></svg>
