<?xml version="1.0"?>
<svg version="1.1" xmlns="http://www.w3.org/2000/svg" viewBox="0 0 400 100" role="img" aria-label="The University of Iowa University Libraries Digital Scholarship and&#13; Publishing Studio"><path fill="#000000" d="M172.51,13.23h-1.73V25.69h1.73v4.54H163V25.69h1.73V13.23H163V8.77h9.51Z"/><path fill="#000000" d="M185.29,30.23H178.4c-2.5,0-4.14-1.64-4.14-4.33V13.09a4,4,0,0,1,3.66-4.31,3.85,3.85,0,0,1,.48,0h6.89c2.5,0,4.13,1.67,4.13,4.32V25.87a4,4,0,0,1-3.62,4.35A4.34,4.34,0,0,1,185.29,30.23Zm-2-4.51V13.23h-3V25.69Z"/><path fill="#000000" d="M192.13,13.24h-1.52V8.78h9v4.46h-1.7l1.55,10.31,3.21-14.79h4.57l3.43,14.79,1.25-10.31h-1.57V8.78h8.89v4.46h-1.48l-2.69,17h-7.25L205,17.58l-2.88,12.66h-7Z"/><path fill="#000000" d="M217.67,25.69h1.63l3.25-16.92h9.72l3.21,16.92H237v4.54h-7.26L229.06,25h-3.61l-.65,5.22h-7.13Zm11-4.63-1.39-8.65-1.42,8.65Z"/><rect x="159" y="35.16" width="82" height="0.733" style="fill:#000000"/><path fill="#000000" d="M170.203125,41.501875C170.203125,41.501875,170.203125,45.24796875,170.203125,45.24796875C170.203125,45.87036328125,170.00846484375,46.36255078125,169.619140625,46.72453125C169.22981640625,47.08651171875,168.69791796875,47.2675,168.0234375,47.2675C167.359375,47.2675,166.83203125,47.09171875,166.44140625,46.74015625C166.05078125,46.38859375,165.8515625,45.90551953125,165.84375,45.2909375C165.84375,45.2909375,165.84375,41.501875,165.84375,41.501875C165.84375,41.501875,167.015625,41.501875,167.015625,41.501875C167.015625,41.501875,167.015625,45.25578125,167.015625,45.25578125C167.015625,45.62817578125,167.10481640625,45.89966015625,167.283203125,46.070234375C167.46158984375,46.24080859375,167.70833203125,46.32609375,168.0234375,46.32609375C168.68229296875,46.32609375,169.01692578125,45.97973828125,169.02734375,45.28703125C169.02734375,45.28703125,169.02734375,41.501875,169.02734375,41.501875C169.02734375,41.501875,170.203125,41.501875,170.203125,41.501875Z M172.12890625,42.9628125C172.12890625,42.9628125,172.1640625,43.45109375,172.1640625,43.45109375C172.46614453125,43.07348828125,172.87109375,42.8846875,173.37890625,42.8846875C173.82682421875,42.8846875,174.16015625,43.01619921875,174.37890625,43.27921875C174.59765625,43.54223828125,174.70963671875,43.93546875,174.71484375,44.45890625C174.71484375,44.45890625,174.71484375,47.189375,174.71484375,47.189375C174.71484375,47.189375,173.5859375,47.189375,173.5859375,47.189375C173.5859375,47.189375,173.5859375,44.48625,173.5859375,44.48625C173.5859375,44.24666796875,173.53385546875,44.07283984375,173.4296875,43.964765625C173.32551953125,43.85669140625,173.15234375,43.80265625,172.91015625,43.80265625C172.59244921875,43.80265625,172.35416796875,43.93807421875,172.1953125,44.20890625C172.1953125,44.20890625,172.1953125,47.189375,172.1953125,47.189375C172.1953125,47.189375,171.06640625,47.189375,171.06640625,47.189375C171.06640625,47.189375,171.06640625,42.9628125,171.06640625,42.9628125C171.06640625,42.9628125,172.12890625,42.9628125,172.12890625,42.9628125Z M176.76171875,47.189375C176.76171875,47.189375,175.62890625,47.189375,175.62890625,47.189375C175.62890625,47.189375,175.62890625,42.9628125,175.62890625,42.9628125C175.62890625,42.9628125,176.76171875,42.9628125,176.76171875,42.9628125C176.76171875,42.9628125,176.76171875,47.189375,176.76171875,47.189375Z M175.5625,41.8690625C175.5625,41.69979296875,175.619140625,41.56046875,175.732421875,41.45109375C175.845703125,41.34171875,176,41.28703125,176.1953125,41.28703125C176.38801953125,41.28703125,176.54166796875,41.34171875,176.65625,41.45109375C176.77083203125,41.56046875,176.828125,41.69979296875,176.828125,41.8690625C176.828125,42.0409375,176.77018359375,42.1815625,176.654296875,42.2909375C176.53841015625,42.4003125,176.38541796875,42.455,176.1953125,42.455C176.00520703125,42.455,175.85221484375,42.4003125,175.736328125,42.2909375C175.62044140625,42.1815625,175.5625,42.0409375,175.5625,41.8690625Z M179.2734375,45.81046875C179.2734375,45.81046875,180.05859375,42.9628125,180.05859375,42.9628125C180.05859375,42.9628125,181.23828125,42.9628125,181.23828125,42.9628125C181.23828125,42.9628125,179.8125,47.189375,179.8125,47.189375C179.8125,47.189375,178.734375,47.189375,178.734375,47.189375C178.734375,47.189375,177.30859375,42.9628125,177.30859375,42.9628125C177.30859375,42.9628125,178.48828125,42.9628125,178.48828125,42.9628125C178.48828125,42.9628125,179.2734375,45.81046875,179.2734375,45.81046875Z M183.484375,47.2675C182.86458203125,47.2675,182.36002734375,47.07739453125,181.970703125,46.6971875C181.58137890625,46.31698046875,181.38671875,45.81046875,181.38671875,45.17765625C181.38671875,45.17765625,181.38671875,45.06828125,181.38671875,45.06828125C181.38671875,44.64380078125,181.46875,44.26424609375,181.6328125,43.929609375C181.796875,43.59497265625,182.029296875,43.33716015625,182.330078125,43.156171875C182.630859375,42.97518359375,182.97395703125,42.8846875,183.359375,42.8846875C183.9375,42.8846875,184.392578125,43.06698046875,184.724609375,43.4315625C185.056640625,43.79614453125,185.22265625,44.31307421875,185.22265625,44.98234375C185.22265625,44.98234375,185.22265625,45.44328125,185.22265625,45.44328125C185.22265625,45.44328125,182.53125,45.44328125,182.53125,45.44328125C182.56770703125,45.71932421875,182.677734375,45.94067578125,182.861328125,46.10734375C183.044921875,46.27401171875,183.27734375,46.35734375,183.55859375,46.35734375C183.99348828125,46.35734375,184.33333203125,46.19979296875,184.578125,45.8846875C184.578125,45.8846875,185.1328125,46.50578125,185.1328125,46.50578125C184.96354296875,46.74536328125,184.734375,46.93221484375,184.4453125,47.066328125C184.15625,47.20044140625,183.8359375,47.2675,183.484375,47.2675Z M183.35546875,43.79875C183.13151171875,43.79875,182.94987109375,43.87426953125,182.810546875,44.0253125C182.67122265625,44.17635546875,182.58203125,44.3925,182.54296875,44.67375C182.54296875,44.67375,184.11328125,44.67375,184.11328125,44.67375C184.11328125,44.67375,184.11328125,44.58390625,184.11328125,44.58390625C184.10807421875,44.33390625,184.04036328125,44.140546875,183.91015625,44.003828125C183.77994921875,43.867109375,183.59505078125,43.79875,183.35546875,43.79875Z M188.23828125,44.02140625C188.08463671875,44.00057421875,187.94921875,43.99015625,187.83203125,43.99015625C187.40494921875,43.99015625,187.125,44.1346875,186.9921875,44.42375C186.9921875,44.42375,186.9921875,47.189375,186.9921875,47.189375C186.9921875,47.189375,185.86328125,47.189375,185.86328125,47.189375C185.86328125,47.189375,185.86328125,42.9628125,185.86328125,42.9628125C185.86328125,42.9628125,186.9296875,42.9628125,186.9296875,42.9628125C186.9296875,42.9628125,186.9609375,43.46671875,186.9609375,43.46671875C187.1875,43.07869921875,187.50130078125,42.8846875,187.90234375,42.8846875C188.02734375,42.8846875,188.14453125,42.90161328125,188.25390625,42.93546875C188.25390625,42.93546875,188.23828125,44.02140625,188.23828125,44.02140625Z M191.09375,46.02140625C191.09375,45.88338671875,191.025390625,45.77466015625,190.888671875,45.695234375C190.751953125,45.61580859375,190.53255078125,45.54484375,190.23046875,45.48234375C189.22526171875,45.27140625,188.72265625,44.84432421875,188.72265625,44.20109375C188.72265625,43.82609375,188.87825390625,43.51294140625,189.189453125,43.261640625C189.50065234375,43.01033984375,189.90755078125,42.8846875,190.41015625,42.8846875C190.94661328125,42.8846875,191.37565234375,43.01098828125,191.697265625,43.26359375C192.01887890625,43.51619921875,192.1796875,43.84432421875,192.1796875,44.24796875C192.1796875,44.24796875,191.05078125,44.24796875,191.05078125,44.24796875C191.05078125,44.08651171875,190.99869921875,43.953046875,190.89453125,43.847578125C190.79036328125,43.742109375,190.62760546875,43.689375,190.40625,43.689375C190.21614453125,43.689375,190.06901171875,43.73234375,189.96484375,43.81828125C189.86067578125,43.90421875,189.80859375,44.01359375,189.80859375,44.14640625C189.80859375,44.27140625,189.86783984375,44.37231640625,189.986328125,44.449140625C190.10481640625,44.52596484375,190.3046875,44.59237109375,190.5859375,44.648359375C190.8671875,44.70434765625,191.10416796875,44.7675,191.296875,44.8378125C191.89323046875,45.0565625,192.19140625,45.43546875,192.19140625,45.97453125C192.19140625,46.35994921875,192.02604296875,46.671796875,191.6953125,46.910078125C191.36458203125,47.148359375,190.9375,47.2675,190.4140625,47.2675C190.05989453125,47.2675,189.74544140625,47.20434765625,189.470703125,47.078046875C189.19596484375,46.95174609375,188.98046875,46.77856640625,188.82421875,46.558515625C188.66796875,46.33846484375,188.58984375,46.10083203125,188.58984375,45.845625C188.58984375,45.845625,189.66015625,45.845625,189.66015625,45.845625C189.67057421875,46.04614453125,189.74479296875,46.19979296875,189.8828125,46.3065625C190.02083203125,46.41333203125,190.20573046875,46.46671875,190.4375,46.46671875C190.65364453125,46.46671875,190.81705859375,46.425703125,190.927734375,46.343671875C191.03841015625,46.261640625,191.09375,46.15421875,191.09375,46.02140625Z M193.9921875,47.189375C193.9921875,47.189375,192.859375,47.189375,192.859375,47.189375C192.859375,47.189375,192.859375,42.9628125,192.859375,42.9628125C192.859375,42.9628125,193.9921875,42.9628125,193.9921875,42.9628125C193.9921875,42.9628125,193.9921875,47.189375,193.9921875,47.189375Z M192.79296875,41.8690625C192.79296875,41.69979296875,192.849609375,41.56046875,192.962890625,41.45109375C193.076171875,41.34171875,193.23046875,41.28703125,193.42578125,41.28703125C193.61848828125,41.28703125,193.77213671875,41.34171875,193.88671875,41.45109375C194.00130078125,41.56046875,194.05859375,41.69979296875,194.05859375,41.8690625C194.05859375,42.0409375,194.00065234375,42.1815625,193.884765625,42.2909375C193.76887890625,42.4003125,193.61588671875,42.455,193.42578125,42.455C193.23567578125,42.455,193.08268359375,42.4003125,192.966796875,42.2909375C192.85091015625,42.1815625,192.79296875,42.0409375,192.79296875,41.8690625Z M196.2734375,41.92375C196.2734375,41.92375,196.2734375,42.9628125,196.2734375,42.9628125C196.2734375,42.9628125,196.99609375,42.9628125,196.99609375,42.9628125C196.99609375,42.9628125,196.99609375,43.7909375,196.99609375,43.7909375C196.99609375,43.7909375,196.2734375,43.7909375,196.2734375,43.7909375C196.2734375,43.7909375,196.2734375,45.9003125,196.2734375,45.9003125C196.2734375,46.0565625,196.30338671875,46.16854296875,196.36328125,46.23625C196.42317578125,46.30395703125,196.53776171875,46.3378125,196.70703125,46.3378125C196.83203125,46.3378125,196.94270703125,46.32869921875,197.0390625,46.31046875C197.0390625,46.31046875,197.0390625,47.1659375,197.0390625,47.1659375C196.81770703125,47.23364453125,196.58984375,47.2675,196.35546875,47.2675C195.56380078125,47.2675,195.16015625,46.86776171875,195.14453125,46.06828125C195.14453125,46.06828125,195.14453125,43.7909375,195.14453125,43.7909375C195.14453125,43.7909375,194.52734375,43.7909375,194.52734375,43.7909375C194.52734375,43.7909375,194.52734375,42.9628125,194.52734375,42.9628125C194.52734375,42.9628125,195.14453125,42.9628125,195.14453125,42.9628125C195.14453125,42.9628125,195.14453125,41.92375,195.14453125,41.92375C195.14453125,41.92375,196.2734375,41.92375,196.2734375,41.92375Z M199.4375,45.59171875C199.4375,45.59171875,200.21875,42.9628125,200.21875,42.9628125C200.21875,42.9628125,201.4296875,42.9628125,201.4296875,42.9628125C201.4296875,42.9628125,199.73046875,47.845625,199.73046875,47.845625C199.73046875,47.845625,199.63671875,48.06828125,199.63671875,48.06828125C199.38411328125,48.62036328125,198.96744921875,48.89640625,198.38671875,48.89640625C198.22265625,48.89640625,198.05598828125,48.87166796875,197.88671875,48.8221875C197.88671875,48.8221875,197.88671875,47.96671875,197.88671875,47.96671875C197.88671875,47.96671875,198.05859375,47.970625,198.05859375,47.970625C198.27213671875,47.970625,198.431640625,47.93807421875,198.537109375,47.87296875C198.642578125,47.80786328125,198.72526171875,47.69979296875,198.78515625,47.54875C198.78515625,47.54875,198.91796875,47.20109375,198.91796875,47.20109375C198.91796875,47.20109375,197.4375,42.9628125,197.4375,42.9628125C197.4375,42.9628125,198.65234375,42.9628125,198.65234375,42.9628125C198.65234375,42.9628125,199.4375,45.59171875,199.4375,45.59171875Z M201.1953125,47.189375Z M205.2578125,46.24796875C205.2578125,46.24796875,207.74609375,46.24796875,207.74609375,46.24796875C207.74609375,46.24796875,207.74609375,47.189375,207.74609375,47.189375C207.74609375,47.189375,204.0859375,47.189375,204.0859375,47.189375C204.0859375,47.189375,204.0859375,41.501875,204.0859375,41.501875C204.0859375,41.501875,205.2578125,41.501875,205.2578125,41.501875C205.2578125,41.501875,205.2578125,46.24796875,205.2578125,46.24796875Z M209.53515625,47.189375C209.53515625,47.189375,208.40234375,47.189375,208.40234375,47.189375C208.40234375,47.189375,208.40234375,42.9628125,208.40234375,42.9628125C208.40234375,42.9628125,209.53515625,42.9628125,209.53515625,42.9628125C209.53515625,42.9628125,209.53515625,47.189375,209.53515625,47.189375Z M208.3359375,41.8690625C208.3359375,41.69979296875,208.392578125,41.56046875,208.505859375,41.45109375C208.619140625,41.34171875,208.7734375,41.28703125,208.96875,41.28703125C209.16145703125,41.28703125,209.31510546875,41.34171875,209.4296875,41.45109375C209.54426953125,41.56046875,209.6015625,41.69979296875,209.6015625,41.8690625C209.6015625,42.0409375,209.54362109375,42.1815625,209.427734375,42.2909375C209.31184765625,42.4003125,209.15885546875,42.455,208.96875,42.455C208.77864453125,42.455,208.62565234375,42.4003125,208.509765625,42.2909375C208.39387890625,42.1815625,208.3359375,42.0409375,208.3359375,41.8690625Z M214.2734375,45.11515625C214.2734375,45.79223828125,214.12890625,46.320234375,213.83984375,46.699140625C213.55078125,47.078046875,213.14713671875,47.2675,212.62890625,47.2675C212.17057421875,47.2675,211.8046875,47.09171875,211.53125,46.74015625C211.53125,46.74015625,211.48046875,47.189375,211.48046875,47.189375C211.48046875,47.189375,210.46484375,47.189375,210.46484375,47.189375C210.46484375,47.189375,210.46484375,41.189375,210.46484375,41.189375C210.46484375,41.189375,211.59375,41.189375,211.59375,41.189375C211.59375,41.189375,211.59375,43.34171875,211.59375,43.34171875C211.85416796875,43.03703125,212.19661328125,42.8846875,212.62109375,42.8846875C213.13671875,42.8846875,213.541015625,43.074140625,213.833984375,43.453046875C214.126953125,43.831953125,214.2734375,44.36515625,214.2734375,45.05265625C214.2734375,45.05265625,214.2734375,45.11515625,214.2734375,45.11515625Z M213.14453125,45.033125C213.14453125,44.60604296875,213.07682421875,44.29419140625,212.94140625,44.097578125C212.80598828125,43.90096484375,212.60416796875,43.80265625,212.3359375,43.80265625C211.9765625,43.80265625,211.72916796875,43.94979296875,211.59375,44.2440625C211.59375,44.2440625,211.59375,45.91203125,211.59375,45.91203125C211.73176953125,46.20890625,211.98176953125,46.35734375,212.34375,46.35734375C212.70833203125,46.35734375,212.94791796875,46.17765625,213.0625,45.81828125C213.1171875,45.64640625,213.14453125,45.3846875,213.14453125,45.033125Z M217.34375,44.02140625C217.19010546875,44.00057421875,217.0546875,43.99015625,216.9375,43.99015625C216.51041796875,43.99015625,216.23046875,44.1346875,216.09765625,44.42375C216.09765625,44.42375,216.09765625,47.189375,216.09765625,47.189375C216.09765625,47.189375,214.96875,47.189375,214.96875,47.189375C214.96875,47.189375,214.96875,42.9628125,214.96875,42.9628125C214.96875,42.9628125,216.03515625,42.9628125,216.03515625,42.9628125C216.03515625,42.9628125,216.06640625,43.46671875,216.06640625,43.46671875C216.29296875,43.07869921875,216.60676953125,42.8846875,217.0078125,42.8846875C217.1328125,42.8846875,217.25,42.90161328125,217.359375,42.93546875C217.359375,42.93546875,217.34375,44.02140625,217.34375,44.02140625Z M220.359375,47.189375C220.30729296875,47.0878125,220.26953125,46.96151171875,220.24609375,46.81046875C219.97265625,47.11515625,219.6171875,47.2675,219.1796875,47.2675C218.765625,47.2675,218.42252734375,47.14770703125,218.150390625,46.908125C217.87825390625,46.66854296875,217.7421875,46.36645703125,217.7421875,46.001875C217.7421875,45.55395703125,217.908203125,45.21020703125,218.240234375,44.970625C218.572265625,44.73104296875,219.05208203125,44.60994921875,219.6796875,44.60734375C219.6796875,44.60734375,220.19921875,44.60734375,220.19921875,44.60734375C220.19921875,44.60734375,220.19921875,44.36515625,220.19921875,44.36515625C220.19921875,44.16984375,220.14908984375,44.01359375,220.048828125,43.89640625C219.94856640625,43.77921875,219.79036328125,43.720625,219.57421875,43.720625C219.38411328125,43.720625,219.23502734375,43.76619921875,219.126953125,43.85734375C219.01887890625,43.94848828125,218.96484375,44.07348828125,218.96484375,44.23234375C218.96484375,44.23234375,217.8359375,44.23234375,217.8359375,44.23234375C217.8359375,43.98755078125,217.91145703125,43.76098828125,218.0625,43.55265625C218.21354296875,43.34432421875,218.42708203125,43.18091015625,218.703125,43.062421875C218.97916796875,42.94393359375,219.2890625,42.8846875,219.6328125,42.8846875C220.15364453125,42.8846875,220.56705859375,43.015546875,220.873046875,43.277265625C221.17903515625,43.538984375,221.33203125,43.90682421875,221.33203125,44.38078125C221.33203125,44.38078125,221.33203125,46.2128125,221.33203125,46.2128125C221.33463671875,46.61385546875,221.390625,46.91723828125,221.5,47.12296875C221.5,47.12296875,221.5,47.189375,221.5,47.189375C221.5,47.189375,220.359375,47.189375,220.359375,47.189375Z M219.42578125,46.40421875C219.59244921875,46.40421875,219.74609375,46.367109375,219.88671875,46.292890625C220.02734375,46.218671875,220.13151171875,46.1190625,220.19921875,45.9940625C220.19921875,45.9940625,220.19921875,45.2675,220.19921875,45.2675C220.19921875,45.2675,219.77734375,45.2675,219.77734375,45.2675C219.21223828125,45.2675,218.91145703125,45.4628125,218.875,45.8534375C218.875,45.8534375,218.87109375,45.91984375,218.87109375,45.91984375C218.87109375,46.06046875,218.92057421875,46.17635546875,219.01953125,46.2675C219.11848828125,46.35864453125,219.25390625,46.40421875,219.42578125,46.40421875Z M224.58203125,44.02140625C224.42838671875,44.00057421875,224.29296875,43.99015625,224.17578125,43.99015625C223.74869921875,43.99015625,223.46875,44.1346875,223.3359375,44.42375C223.3359375,44.42375,223.3359375,47.189375,223.3359375,47.189375C223.3359375,47.189375,222.20703125,47.189375,222.20703125,47.189375C222.20703125,47.189375,222.20703125,42.9628125,222.20703125,42.9628125C222.20703125,42.9628125,223.2734375,42.9628125,223.2734375,42.9628125C223.2734375,42.9628125,223.3046875,43.46671875,223.3046875,43.46671875C223.53125,43.07869921875,223.84505078125,42.8846875,224.24609375,42.8846875C224.37109375,42.8846875,224.48828125,42.90161328125,224.59765625,42.93546875C224.59765625,42.93546875,224.58203125,44.02140625,224.58203125,44.02140625Z M226.45703125,47.189375C226.45703125,47.189375,225.32421875,47.189375,225.32421875,47.189375C225.32421875,47.189375,225.32421875,42.9628125,225.32421875,42.9628125C225.32421875,42.9628125,226.45703125,42.9628125,226.45703125,42.9628125C226.45703125,42.9628125,226.45703125,47.189375,226.45703125,47.189375Z M225.2578125,41.8690625C225.2578125,41.69979296875,225.314453125,41.56046875,225.427734375,41.45109375C225.541015625,41.34171875,225.6953125,41.28703125,225.890625,41.28703125C226.08333203125,41.28703125,226.23698046875,41.34171875,226.3515625,41.45109375C226.46614453125,41.56046875,226.5234375,41.69979296875,226.5234375,41.8690625C226.5234375,42.0409375,226.46549609375,42.1815625,226.349609375,42.2909375C226.23372265625,42.4003125,226.08073046875,42.455,225.890625,42.455C225.70051953125,42.455,225.54752734375,42.4003125,225.431640625,42.2909375C225.31575390625,42.1815625,225.2578125,42.0409375,225.2578125,41.8690625Z M229.33203125,47.2675C228.71223828125,47.2675,228.20768359375,47.07739453125,227.818359375,46.6971875C227.42903515625,46.31698046875,227.234375,45.81046875,227.234375,45.17765625C227.234375,45.17765625,227.234375,45.06828125,227.234375,45.06828125C227.234375,44.64380078125,227.31640625,44.26424609375,227.48046875,43.929609375C227.64453125,43.59497265625,227.876953125,43.33716015625,228.177734375,43.156171875C228.478515625,42.97518359375,228.82161328125,42.8846875,229.20703125,42.8846875C229.78515625,42.8846875,230.240234375,43.06698046875,230.572265625,43.4315625C230.904296875,43.79614453125,231.0703125,44.31307421875,231.0703125,44.98234375C231.0703125,44.98234375,231.0703125,45.44328125,231.0703125,45.44328125C231.0703125,45.44328125,228.37890625,45.44328125,228.37890625,45.44328125C228.41536328125,45.71932421875,228.525390625,45.94067578125,228.708984375,46.10734375C228.892578125,46.27401171875,229.125,46.35734375,229.40625,46.35734375C229.84114453125,46.35734375,230.18098828125,46.19979296875,230.42578125,45.8846875C230.42578125,45.8846875,230.98046875,46.50578125,230.98046875,46.50578125C230.81119921875,46.74536328125,230.58203125,46.93221484375,230.29296875,47.066328125C230.00390625,47.20044140625,229.68359375,47.2675,229.33203125,47.2675Z M229.203125,43.79875C228.97916796875,43.79875,228.79752734375,43.87426953125,228.658203125,44.0253125C228.51887890625,44.17635546875,228.4296875,44.3925,228.390625,44.67375C228.390625,44.67375,229.9609375,44.67375,229.9609375,44.67375C229.9609375,44.67375,229.9609375,44.58390625,229.9609375,44.58390625C229.95573046875,44.33390625,229.88801953125,44.140546875,229.7578125,44.003828125C229.62760546875,43.867109375,229.44270703125,43.79875,229.203125,43.79875Z M234,46.02140625C234,45.88338671875,233.931640625,45.77466015625,233.794921875,45.695234375C233.658203125,45.61580859375,233.43880078125,45.54484375,233.13671875,45.48234375C232.13151171875,45.27140625,231.62890625,44.84432421875,231.62890625,44.20109375C231.62890625,43.82609375,231.78450390625,43.51294140625,232.095703125,43.261640625C232.40690234375,43.01033984375,232.81380078125,42.8846875,233.31640625,42.8846875C233.85286328125,42.8846875,234.28190234375,43.01098828125,234.603515625,43.26359375C234.92512890625,43.51619921875,235.0859375,43.84432421875,235.0859375,44.24796875C235.0859375,44.24796875,233.95703125,44.24796875,233.95703125,44.24796875C233.95703125,44.08651171875,233.90494921875,43.953046875,233.80078125,43.847578125C233.69661328125,43.742109375,233.53385546875,43.689375,233.3125,43.689375C233.12239453125,43.689375,232.97526171875,43.73234375,232.87109375,43.81828125C232.76692578125,43.90421875,232.71484375,44.01359375,232.71484375,44.14640625C232.71484375,44.27140625,232.77408984375,44.37231640625,232.892578125,44.449140625C233.01106640625,44.52596484375,233.2109375,44.59237109375,233.4921875,44.648359375C233.7734375,44.70434765625,234.01041796875,44.7675,234.203125,44.8378125C234.79948046875,45.0565625,235.09765625,45.43546875,235.09765625,45.97453125C235.09765625,46.35994921875,234.93229296875,46.671796875,234.6015625,46.910078125C234.27083203125,47.148359375,233.84375,47.2675,233.3203125,47.2675C232.96614453125,47.2675,232.65169140625,47.20434765625,232.376953125,47.078046875C232.10221484375,46.95174609375,231.88671875,46.77856640625,231.73046875,46.558515625C231.57421875,46.33846484375,231.49609375,46.10083203125,231.49609375,45.845625C231.49609375,45.845625,232.56640625,45.845625,232.56640625,45.845625C232.57682421875,46.04614453125,232.65104296875,46.19979296875,232.7890625,46.3065625C232.92708203125,46.41333203125,233.11198046875,46.46671875,233.34375,46.46671875C233.55989453125,46.46671875,233.72330859375,46.425703125,233.833984375,46.343671875C233.94466015625,46.261640625,234,46.15421875,234,46.02140625Z"/><path fill="#000000" d="M170.1201171875,56.6805C170.1201171875,56.6805,170.1201171875,52.414875,170.1201171875,52.414875C170.1201171875,52.414875,171.32421875,52.414875,171.32421875,52.414875C171.69531347656,52.414875,172.02343847656,52.49690625,172.30859375,52.66096875C172.59374902344,52.82503125,172.81396484375,53.058430664062,172.96923828125,53.3611640625C173.12451171875,53.663897460938,173.20312402344,54.0115546875,173.205078125,54.4041328125C173.205078125,54.4041328125,173.205078125,54.67659375,173.205078125,54.67659375C173.205078125,55.078936523438,173.12744140625,55.431477539062,172.97216796875,55.7342109375C172.81689453125,56.036944335938,172.59521386719,56.269368164062,172.30712890625,56.4314765625C172.01904394531,56.593584960938,171.68359472656,56.676594726562,171.30078125,56.6805C171.30078125,56.6805,170.1201171875,56.6805,170.1201171875,56.6805Z M170.6826171875,52.877765625C170.6826171875,52.877765625,170.6826171875,56.2205390625,170.6826171875,56.2205390625C170.6826171875,56.2205390625,171.2744140625,56.2205390625,171.2744140625,56.2205390625C171.7080078125,56.2205390625,172.04541113281,56.0857734375,172.28662109375,55.8162421875C172.52783105469,55.5467109375,172.6484375,55.162921875,172.6484375,54.664875C172.6484375,54.664875,172.6484375,54.4158515625,172.6484375,54.4158515625C172.6484375,53.931477539062,172.53466894531,53.555012695312,172.30712890625,53.28645703125C172.07958886719,53.017901367188,171.75683691406,52.881670898438,171.3388671875,52.877765625C171.3388671875,52.877765625,170.6826171875,52.877765625,170.6826171875,52.877765625Z M174.55859375,56.6805C174.55859375,56.6805,174.0166015625,56.6805,174.0166015625,56.6805C174.0166015625,56.6805,174.0166015625,53.510578125,174.0166015625,53.510578125C174.0166015625,53.510578125,174.55859375,53.510578125,174.55859375,53.510578125C174.55859375,53.510578125,174.55859375,56.6805,174.55859375,56.6805Z M173.97265625,52.6697578125C173.97265625,52.5818671875,173.99951269531,52.507649414062,174.05322265625,52.4471015625C174.10693261719,52.386553710938,174.1865234375,52.35628125,174.2919921875,52.35628125C174.3974609375,52.35628125,174.47753808594,52.386553710938,174.5322265625,52.4471015625C174.58691503906,52.507649414062,174.6142578125,52.5818671875,174.6142578125,52.6697578125C174.6142578125,52.7576484375,174.58691503906,52.830890625,174.5322265625,52.889484375C174.47753808594,52.948078125,174.3974609375,52.977375,174.2919921875,52.977375C174.1865234375,52.977375,174.10693261719,52.948078125,174.05322265625,52.889484375C173.99951269531,52.830890625,173.97265625,52.7576484375,173.97265625,52.6697578125Z M175.296875,55.069171875C175.296875,54.575030273438,175.4111328125,54.181965820312,175.6396484375,53.88997265625C175.8681640625,53.597979492188,176.17089746094,53.451984375,176.5478515625,53.451984375C176.9345703125,53.451984375,177.236328125,53.588704101562,177.453125,53.862140625C177.453125,53.862140625,177.4794921875,53.510578125,177.4794921875,53.510578125C177.4794921875,53.510578125,177.974609375,53.510578125,177.974609375,53.510578125C177.974609375,53.510578125,177.974609375,56.604328125,177.974609375,56.604328125C177.974609375,57.014484375,177.85302734375,57.337725585938,177.60986328125,57.5740546875C177.36669921875,57.810383789062,177.0400390625,57.928546875,176.6298828125,57.928546875C176.4013671875,57.928546875,176.17773535156,57.879717773438,175.958984375,57.7820625C175.74023339844,57.684407226562,175.57324121094,57.5506171875,175.4580078125,57.3806953125C175.4580078125,57.3806953125,175.7392578125,57.0555,175.7392578125,57.0555C175.97167871094,57.342609375,176.25585839844,57.4861640625,176.591796875,57.4861640625C176.85546875,57.4861640625,177.06103613281,57.411946289062,177.20849609375,57.2635078125C177.35595605469,57.115069335938,177.4296875,56.9060859375,177.4296875,56.6365546875C177.4296875,56.6365546875,177.4296875,56.36409375,177.4296875,56.36409375C177.212890625,56.614092773438,176.9169921875,56.73909375,176.5419921875,56.73909375C176.17089746094,56.73909375,175.87060449219,56.5896796875,175.64111328125,56.2908515625C175.41162207031,55.9920234375,175.296875,55.584796875,175.296875,55.069171875Z M175.841796875,55.1306953125C175.841796875,55.4881171875,175.9150390625,55.768877929688,176.0615234375,55.97298046875C176.2080078125,56.177083007812,176.4130859375,56.2791328125,176.6767578125,56.2791328125C177.01855566406,56.2791328125,177.26953027344,56.123859375,177.4296875,55.8133125C177.4296875,55.8133125,177.4296875,54.366046875,177.4296875,54.366046875C177.26367089844,54.063313476562,177.01464746094,53.9119453125,176.6826171875,53.9119453125C176.4189453125,53.9119453125,176.21289160156,54.014484375,176.064453125,54.2195625C175.91601464844,54.424640625,175.841796875,54.728352539062,175.841796875,55.1306953125Z M179.380859375,56.6805C179.380859375,56.6805,178.8388671875,56.6805,178.8388671875,56.6805C178.8388671875,56.6805,178.8388671875,53.510578125,178.8388671875,53.510578125C178.8388671875,53.510578125,179.380859375,53.510578125,179.380859375,53.510578125C179.380859375,53.510578125,179.380859375,56.6805,179.380859375,56.6805Z M178.794921875,52.6697578125C178.794921875,52.5818671875,178.82177832031,52.507649414062,178.87548828125,52.4471015625C178.92919824219,52.386553710938,179.0087890625,52.35628125,179.1142578125,52.35628125C179.2197265625,52.35628125,179.29980371094,52.386553710938,179.3544921875,52.4471015625C179.40918066406,52.507649414062,179.4365234375,52.5818671875,179.4365234375,52.6697578125C179.4365234375,52.7576484375,179.40918066406,52.830890625,179.3544921875,52.889484375C179.29980371094,52.948078125,179.2197265625,52.977375,179.1142578125,52.977375C179.0087890625,52.977375,178.92919824219,52.948078125,178.87548828125,52.889484375C178.82177832031,52.830890625,178.794921875,52.7576484375,178.794921875,52.6697578125Z M180.9833984375,52.743C180.9833984375,52.743,180.9833984375,53.510578125,180.9833984375,53.510578125C180.9833984375,53.510578125,181.5751953125,53.510578125,181.5751953125,53.510578125C181.5751953125,53.510578125,181.5751953125,53.9295234375,181.5751953125,53.9295234375C181.5751953125,53.9295234375,180.9833984375,53.9295234375,180.9833984375,53.9295234375C180.9833984375,53.9295234375,180.9833984375,55.89534375,180.9833984375,55.89534375C180.9833984375,56.022295898438,181.009765625,56.117510742188,181.0625,56.18098828125C181.115234375,56.244465820312,181.20507910156,56.276203125,181.33203125,56.276203125C181.39453027344,56.276203125,181.48046972656,56.264484375,181.58984375,56.241046875C181.58984375,56.241046875,181.58984375,56.6805,181.58984375,56.6805C181.44726464844,56.719561523438,181.30859375,56.73909375,181.173828125,56.73909375C180.93163964844,56.73909375,180.7490234375,56.6658515625,180.6259765625,56.5193671875C180.5029296875,56.3728828125,180.44140625,56.164875,180.44140625,55.89534375C180.44140625,55.89534375,180.44140625,53.9295234375,180.44140625,53.9295234375C180.44140625,53.9295234375,179.8642578125,53.9295234375,179.8642578125,53.9295234375C179.8642578125,53.9295234375,179.8642578125,53.510578125,179.8642578125,53.510578125C179.8642578125,53.510578125,180.44140625,53.510578125,180.44140625,53.510578125C180.44140625,53.510578125,180.44140625,52.743,180.44140625,52.743C180.44140625,52.743,180.9833984375,52.743,180.9833984375,52.743Z M184.1650390625,56.6805C184.13378808594,56.618000976562,184.10839941406,56.506672851562,184.0888671875,56.346515625C183.8369140625,56.608233398438,183.53613183594,56.73909375,183.1865234375,56.73909375C182.87402246094,56.73909375,182.61767480469,56.650713867188,182.41748046875,56.47395703125C182.21728613281,56.297200195312,182.1171875,56.073079101562,182.1171875,55.80159375C182.1171875,55.471514648438,182.24267480469,55.215166992188,182.49365234375,55.03255078125C182.74462988281,54.849934570312,183.09765722656,54.758625,183.552734375,54.758625C183.552734375,54.758625,184.080078125,54.758625,184.080078125,54.758625C184.080078125,54.758625,184.080078125,54.5096015625,184.080078125,54.5096015625C184.080078125,54.320147460938,184.02343847656,54.169268554688,183.91015625,54.05696484375C183.79687402344,53.944661132812,183.62988183594,53.8885078125,183.4091796875,53.8885078125C183.2158203125,53.8885078125,183.05371191406,53.937336914062,182.9228515625,54.0349921875C182.79199121094,54.132647460938,182.7265625,54.250813476562,182.7265625,54.389484375C182.7265625,54.389484375,182.181640625,54.389484375,182.181640625,54.389484375C182.181640625,54.23128125,182.23779394531,54.078448242188,182.35009765625,53.93098828125C182.46240136719,53.783528320312,182.61474511719,53.666827148438,182.80712890625,53.580890625C182.99951269531,53.494954101562,183.21093652344,53.451984375,183.44140625,53.451984375C183.80664160156,53.451984375,184.09277246094,53.543293945312,184.2998046875,53.72591015625C184.50683691406,53.908526367188,184.61425683594,54.159993164062,184.6220703125,54.4803046875C184.6220703125,54.4803046875,184.6220703125,55.9392890625,184.6220703125,55.9392890625C184.6220703125,56.230303710938,184.65918066406,56.461749023438,184.7333984375,56.633625C184.7333984375,56.633625,184.7333984375,56.6805,184.7333984375,56.6805C184.7333984375,56.6805,184.1650390625,56.6805,184.1650390625,56.6805Z M183.265625,56.2674140625C183.435546875,56.2674140625,183.5966796875,56.22346875,183.7490234375,56.135578125C183.9013671875,56.0476875,184.01171972656,55.9334296875,184.080078125,55.7928046875C184.080078125,55.7928046875,184.080078125,55.1424140625,184.080078125,55.1424140625C184.080078125,55.1424140625,183.6552734375,55.1424140625,183.6552734375,55.1424140625C182.99120996094,55.1424140625,182.6591796875,55.336749023438,182.6591796875,55.725421875C182.6591796875,55.89534375,182.71581933594,56.028155273438,182.8291015625,56.123859375C182.94238378906,56.219563476562,183.08788964844,56.2674140625,183.265625,56.2674140625Z M186.060546875,56.6805C186.060546875,56.6805,185.5185546875,56.6805,185.5185546875,56.6805C185.5185546875,56.6805,185.5185546875,52.1805,185.5185546875,52.1805C185.5185546875,52.1805,186.060546875,52.1805,186.060546875,52.1805C186.060546875,52.1805,186.060546875,56.6805,186.060546875,56.6805Z M186.341796875,56.6805Z M189.7548828125,54.7791328125C189.27245996094,54.640461914062,188.92138671875,54.47005078125,188.70166015625,54.26790234375C188.48193359375,54.06575390625,188.3720703125,53.816241210938,188.3720703125,53.5193671875C188.3720703125,53.183428710938,188.50634667969,52.90559765625,188.77490234375,52.68587109375C189.04345800781,52.46614453125,189.39257714844,52.35628125,189.822265625,52.35628125C190.115234375,52.35628125,190.37646582031,52.412920898438,190.60595703125,52.526203125C190.83544824219,52.639485351562,191.01318359375,52.795734375,191.13916015625,52.994953125C191.26513671875,53.194171875,191.328125,53.411944335938,191.328125,53.6482734375C191.328125,53.6482734375,190.7626953125,53.6482734375,190.7626953125,53.6482734375C190.7626953125,53.3904609375,190.6806640625,53.187823242188,190.5166015625,53.04036328125C190.3525390625,52.892903320312,190.12109375,52.819171875,189.822265625,52.819171875C189.54492089844,52.819171875,189.32861328125,52.880206054688,189.17333984375,53.00227734375C189.01806640625,53.124348632812,188.9404296875,53.29378125,188.9404296875,53.510578125C188.9404296875,53.684405273438,189.01416113281,53.83137890625,189.16162109375,53.95149609375C189.30908105469,54.07161328125,189.56005859375,54.1814765625,189.91455078125,54.2810859375C190.26904296875,54.3806953125,190.54638769531,54.49055859375,190.74658203125,54.61067578125C190.94677636719,54.73079296875,191.09521484375,54.870928710938,191.19189453125,55.0310859375C191.28857421875,55.191243164062,191.3369140625,55.37971875,191.3369140625,55.596515625C191.3369140625,55.94221875,191.2021484375,56.21907421875,190.9326171875,56.42708203125C190.6630859375,56.63508984375,190.302734375,56.73909375,189.8515625,56.73909375C189.55859375,56.73909375,189.28515722656,56.682940429688,189.03125,56.57063671875C188.77734277344,56.458333007812,188.58154296875,56.304524414062,188.44384765625,56.1092109375C188.30615234375,55.913897460938,188.2373046875,55.692219726562,188.2373046875,55.444171875C188.2373046875,55.444171875,188.802734375,55.444171875,188.802734375,55.444171875C188.802734375,55.701984375,188.89794921875,55.90559765625,189.08837890625,56.05501171875C189.27880859375,56.20442578125,189.53320214844,56.2791328125,189.8515625,56.2791328125C190.14843652344,56.2791328125,190.3759765625,56.218584960938,190.5341796875,56.0974921875C190.6923828125,55.976399414062,190.771484375,55.811358398438,190.771484375,55.602375C190.771484375,55.393391601562,190.6982421875,55.23176953125,190.5517578125,55.11751171875C190.4052734375,55.00325390625,190.13964746094,54.8904609375,189.7548828125,54.7791328125Z M193.244140625,56.2967109375C193.4375,56.2967109375,193.60644628906,56.2381171875,193.7509765625,56.1209296875C193.89550683594,56.0037421875,193.97558691406,55.8572578125,193.9912109375,55.6814765625C193.9912109375,55.6814765625,194.50390625,55.6814765625,194.50390625,55.6814765625C194.49414160156,55.8631171875,194.43163964844,56.03596875,194.31640625,56.20003125C194.20117285156,56.36409375,194.04736425781,56.494954101562,193.85498046875,56.592609375C193.66259667969,56.690264648438,193.45898339844,56.73909375,193.244140625,56.73909375C192.81250097656,56.73909375,192.46923828125,56.595049804688,192.21435546875,56.30696484375C191.95947265625,56.018879882812,191.83203125,55.624836914062,191.83203125,55.1248359375C191.83203125,55.1248359375,191.83203125,55.034015625,191.83203125,55.034015625C191.83203125,54.725422851562,191.88867089844,54.4510078125,192.001953125,54.2107734375C192.11523535156,53.9705390625,192.27783300781,53.784014648438,192.48974609375,53.651203125C192.70165917969,53.518391601562,192.95214746094,53.451984375,193.2412109375,53.451984375C193.59667871094,53.451984375,193.89209082031,53.558428710938,194.12744140625,53.7713203125C194.36279199219,53.984211914062,194.48828222656,54.260578125,194.50390625,54.600421875C194.50390625,54.600421875,193.9912109375,54.600421875,193.9912109375,54.600421875C193.97558691406,54.39534375,193.89795019531,54.22688671875,193.75830078125,54.09505078125C193.61865136719,53.96321484375,193.4462890625,53.897296875,193.2412109375,53.897296875C192.9658203125,53.897296875,192.75244238281,53.996416992188,192.60107421875,54.19466015625C192.44970605469,54.392903320312,192.3740234375,54.6795234375,192.3740234375,55.0545234375C192.3740234375,55.0545234375,192.3740234375,55.1570625,192.3740234375,55.1570625C192.3740234375,55.522297851562,192.44921972656,55.803547851562,192.599609375,56.0008125C192.74999902344,56.198077148438,192.96484472656,56.2967109375,193.244140625,56.2967109375Z M195.6552734375,53.8943671875C195.8955078125,53.599444335938,196.20800878906,53.451984375,196.5927734375,53.451984375C197.26269628906,53.451984375,197.6005859375,53.8299140625,197.6064453125,54.5857734375C197.6064453125,54.5857734375,197.6064453125,56.6805,197.6064453125,56.6805C197.6064453125,56.6805,197.064453125,56.6805,197.064453125,56.6805C197.064453125,56.6805,197.064453125,54.58284375,197.064453125,54.58284375C197.06249902344,54.354328125,197.01025390625,54.185381835938,196.90771484375,54.0760078125C196.80517578125,53.966633789062,196.6455078125,53.9119453125,196.4287109375,53.9119453125C196.2529296875,53.9119453125,196.09863183594,53.9588203125,195.9658203125,54.0525703125C195.83300878906,54.1463203125,195.72949121094,54.2693671875,195.6552734375,54.4217109375C195.6552734375,54.4217109375,195.6552734375,56.6805,195.6552734375,56.6805C195.6552734375,56.6805,195.11328125,56.6805,195.11328125,56.6805C195.11328125,56.6805,195.11328125,52.1805,195.11328125,52.1805C195.11328125,52.1805,195.6552734375,52.1805,195.6552734375,52.1805C195.6552734375,52.1805,195.6552734375,53.8943671875,195.6552734375,53.8943671875Z M198.2744140625,55.0662421875C198.2744140625,54.7556953125,198.33544824219,54.476399414062,198.45751953125,54.2283515625C198.57959082031,53.980303710938,198.74951269531,53.7888984375,198.96728515625,53.6541328125C199.18505761719,53.5193671875,199.43359472656,53.451984375,199.712890625,53.451984375C200.14453027344,53.451984375,200.49365234375,53.6013984375,200.76025390625,53.9002265625C201.02685546875,54.1990546875,201.16015625,54.596516601562,201.16015625,55.092609375C201.16015625,55.092609375,201.16015625,55.1306953125,201.16015625,55.1306953125C201.16015625,55.439288085938,201.10107324219,55.716143554688,200.98291015625,55.96126171875C200.86474707031,56.206379882812,200.69580078125,56.397295898438,200.47607421875,56.534015625C200.25634765625,56.670735351562,200.00390527344,56.73909375,199.71875,56.73909375C199.28906152344,56.73909375,198.94091796875,56.5896796875,198.67431640625,56.2908515625C198.40771484375,55.9920234375,198.2744140625,55.596515625,198.2744140625,55.104328125C198.2744140625,55.104328125,198.2744140625,55.0662421875,198.2744140625,55.0662421875Z M198.8193359375,55.1306953125C198.8193359375,55.4822578125,198.90087792969,55.764483398438,199.06396484375,55.977375C199.22705175781,56.190266601562,199.44531347656,56.2967109375,199.71875,56.2967109375C199.994140625,56.2967109375,200.21289160156,56.188801757812,200.375,55.97298046875C200.53710839844,55.757159179688,200.6181640625,55.454915039062,200.6181640625,55.0662421875C200.6181640625,54.718584960938,200.53564355469,54.436848632812,200.37060546875,54.22102734375C200.20556738281,54.005206054688,199.98632714844,53.897296875,199.712890625,53.897296875C199.44531347656,53.897296875,199.2294921875,54.003741210938,199.0654296875,54.2166328125C198.9013671875,54.429524414062,198.8193359375,54.734211914062,198.8193359375,55.1306953125Z M202.4287109375,56.6805C202.4287109375,56.6805,201.88671875,56.6805,201.88671875,56.6805C201.88671875,56.6805,201.88671875,52.1805,201.88671875,52.1805C201.88671875,52.1805,202.4287109375,52.1805,202.4287109375,52.1805C202.4287109375,52.1805,202.4287109375,56.6805,202.4287109375,56.6805Z M205.2529296875,56.6805C205.22167871094,56.618000976562,205.19629003906,56.506672851562,205.1767578125,56.346515625C204.9248046875,56.608233398438,204.62402246094,56.73909375,204.2744140625,56.73909375C203.96191308594,56.73909375,203.70556542969,56.650713867188,203.50537109375,56.47395703125C203.30517675781,56.297200195312,203.205078125,56.073079101562,203.205078125,55.80159375C203.205078125,55.471514648438,203.33056542969,55.215166992188,203.58154296875,55.03255078125C203.83252050781,54.849934570312,204.18554785156,54.758625,204.640625,54.758625C204.640625,54.758625,205.16796875,54.758625,205.16796875,54.758625C205.16796875,54.758625,205.16796875,54.5096015625,205.16796875,54.5096015625C205.16796875,54.320147460938,205.11132910156,54.169268554688,204.998046875,54.05696484375C204.88476464844,53.944661132812,204.71777246094,53.8885078125,204.4970703125,53.8885078125C204.3037109375,53.8885078125,204.14160253906,53.937336914062,204.0107421875,54.0349921875C203.87988183594,54.132647460938,203.814453125,54.250813476562,203.814453125,54.389484375C203.814453125,54.389484375,203.26953125,54.389484375,203.26953125,54.389484375C203.26953125,54.23128125,203.32568457031,54.078448242188,203.43798828125,53.93098828125C203.55029199219,53.783528320312,203.70263574219,53.666827148438,203.89501953125,53.580890625C204.08740332031,53.494954101562,204.29882714844,53.451984375,204.529296875,53.451984375C204.89453222656,53.451984375,205.18066308594,53.543293945312,205.3876953125,53.72591015625C205.59472753906,53.908526367188,205.70214746094,54.159993164062,205.7099609375,54.4803046875C205.7099609375,54.4803046875,205.7099609375,55.9392890625,205.7099609375,55.9392890625C205.7099609375,56.230303710938,205.74707128906,56.461749023438,205.8212890625,56.633625C205.8212890625,56.633625,205.8212890625,56.6805,205.8212890625,56.6805C205.8212890625,56.6805,205.2529296875,56.6805,205.2529296875,56.6805Z M204.353515625,56.2674140625C204.5234375,56.2674140625,204.6845703125,56.22346875,204.8369140625,56.135578125C204.9892578125,56.0476875,205.09961035156,55.9334296875,205.16796875,55.7928046875C205.16796875,55.7928046875,205.16796875,55.1424140625,205.16796875,55.1424140625C205.16796875,55.1424140625,204.7431640625,55.1424140625,204.7431640625,55.1424140625C204.07910058594,55.1424140625,203.7470703125,55.336749023438,203.7470703125,55.725421875C203.7470703125,55.89534375,203.80370996094,56.028155273438,203.9169921875,56.123859375C204.03027441406,56.219563476562,204.17578027344,56.2674140625,204.353515625,56.2674140625Z M207.974609375,53.99690625C207.892578125,53.983233398438,207.80371191406,53.9763984375,207.7080078125,53.9763984375C207.35254003906,53.9763984375,207.11132714844,54.127766601562,206.984375,54.4305C206.984375,54.4305,206.984375,56.6805,206.984375,56.6805C206.984375,56.6805,206.4423828125,56.6805,206.4423828125,56.6805C206.4423828125,56.6805,206.4423828125,53.510578125,206.4423828125,53.510578125C206.4423828125,53.510578125,206.9697265625,53.510578125,206.9697265625,53.510578125C206.9697265625,53.510578125,206.978515625,53.8767890625,206.978515625,53.8767890625C207.15625097656,53.593584960938,207.40820410156,53.451984375,207.734375,53.451984375C207.83984375,53.451984375,207.91992089844,53.465657226562,207.974609375,53.493C207.974609375,53.493,207.974609375,53.99690625,207.974609375,53.99690625Z M210.318359375,55.8396796875C210.318359375,55.6931953125,210.26318457031,55.579426757812,210.15283203125,55.49837109375C210.04247949219,55.417315429688,209.85009863281,55.3474921875,209.57568359375,55.2888984375C209.30126855469,55.2303046875,209.08349609375,55.1599921875,208.92236328125,55.0779609375C208.76123046875,54.9959296875,208.64208886719,54.898274414062,208.56494140625,54.7849921875C208.48779394531,54.671709960938,208.44921875,54.536944335938,208.44921875,54.3806953125C208.44921875,54.120928710938,208.55908203125,53.901202148438,208.77880859375,53.721515625C208.99853515625,53.541829101562,209.27929589844,53.451984375,209.62109375,53.451984375C209.98046972656,53.451984375,210.27197363281,53.544758789062,210.49560546875,53.7303046875C210.71923730469,53.915850585938,210.8310546875,54.153155273438,210.8310546875,54.44221875C210.8310546875,54.44221875,210.2861328125,54.44221875,210.2861328125,54.44221875C210.2861328125,54.293780273438,210.22314453125,54.165852539062,210.09716796875,54.0584296875C209.97119140625,53.951006835938,209.81249902344,53.897296875,209.62109375,53.897296875C209.42382910156,53.897296875,209.26953125,53.940266601562,209.158203125,54.026203125C209.046875,54.112139648438,208.9912109375,54.224446289062,208.9912109375,54.3631171875C208.9912109375,54.493977539062,209.04296972656,54.592608398438,209.146484375,54.659015625C209.24999902344,54.725422851562,209.43701269531,54.788897460938,209.70751953125,54.8494453125C209.97802636719,54.909993164062,210.19726660156,54.982256835938,210.365234375,55.0662421875C210.53320214844,55.150227539062,210.65771386719,55.251301757812,210.73876953125,55.36946484375C210.81982519531,55.487627929688,210.8603515625,55.631671875,210.8603515625,55.80159375C210.8603515625,56.084797851562,210.74706933594,56.311848632812,210.5205078125,56.48274609375C210.29394628906,56.653643554688,209.99999902344,56.73909375,209.638671875,56.73909375C209.38476464844,56.73909375,209.16015722656,56.694172851562,208.96484375,56.604328125C208.76953027344,56.514483398438,208.61670019531,56.38899609375,208.50634765625,56.22786328125C208.39599511719,56.06673046875,208.3408203125,55.8924140625,208.3408203125,55.7049140625C208.3408203125,55.7049140625,208.8828125,55.7049140625,208.8828125,55.7049140625C208.89257714844,55.8865546875,208.96533300781,56.030598632812,209.10107421875,56.13704296875C209.23681542969,56.243487304688,209.416015625,56.2967109375,209.638671875,56.2967109375C209.84375,56.2967109375,210.00830175781,56.255206054688,210.13232421875,56.17219921875C210.25634667969,56.089192382812,210.318359375,55.978350585938,210.318359375,55.8396796875Z M212.1083984375,53.8943671875C212.3486328125,53.599444335938,212.66113378906,53.451984375,213.0458984375,53.451984375C213.71582128906,53.451984375,214.0537109375,53.8299140625,214.0595703125,54.5857734375C214.0595703125,54.5857734375,214.0595703125,56.6805,214.0595703125,56.6805C214.0595703125,56.6805,213.517578125,56.6805,213.517578125,56.6805C213.517578125,56.6805,213.517578125,54.58284375,213.517578125,54.58284375C213.51562402344,54.354328125,213.46337890625,54.185381835938,213.36083984375,54.0760078125C213.25830078125,53.966633789062,213.0986328125,53.9119453125,212.8818359375,53.9119453125C212.7060546875,53.9119453125,212.55175683594,53.9588203125,212.4189453125,54.0525703125C212.28613378906,54.1463203125,212.18261621094,54.2693671875,212.1083984375,54.4217109375C212.1083984375,54.4217109375,212.1083984375,56.6805,212.1083984375,56.6805C212.1083984375,56.6805,211.56640625,56.6805,211.56640625,56.6805C211.56640625,56.6805,211.56640625,52.1805,211.56640625,52.1805C211.56640625,52.1805,212.1083984375,52.1805,212.1083984375,52.1805C212.1083984375,52.1805,212.1083984375,53.8943671875,212.1083984375,53.8943671875Z M215.4599609375,56.6805C215.4599609375,56.6805,214.91796875,56.6805,214.91796875,56.6805C214.91796875,56.6805,214.91796875,53.510578125,214.91796875,53.510578125C214.91796875,53.510578125,215.4599609375,53.510578125,215.4599609375,53.510578125C215.4599609375,53.510578125,215.4599609375,56.6805,215.4599609375,56.6805Z M214.8740234375,52.6697578125C214.8740234375,52.5818671875,214.90087988281,52.507649414062,214.95458984375,52.4471015625C215.00829980469,52.386553710938,215.087890625,52.35628125,215.193359375,52.35628125C215.298828125,52.35628125,215.37890527344,52.386553710938,215.43359375,52.4471015625C215.48828222656,52.507649414062,215.515625,52.5818671875,215.515625,52.6697578125C215.515625,52.7576484375,215.48828222656,52.830890625,215.43359375,52.889484375C215.37890527344,52.948078125,215.298828125,52.977375,215.193359375,52.977375C215.087890625,52.977375,215.00829980469,52.948078125,214.95458984375,52.889484375C214.90087988281,52.830890625,214.8740234375,52.7576484375,214.8740234375,52.6697578125Z M219.0048828125,55.1306953125C219.0048828125,55.613118164062,218.89453027344,56.001788085938,218.673828125,56.2967109375C218.45312597656,56.591633789062,218.15429785156,56.73909375,217.77734375,56.73909375C217.39257910156,56.73909375,217.08984277344,56.617022460938,216.869140625,56.3728828125C216.869140625,56.3728828125,216.869140625,57.89925,216.869140625,57.89925C216.869140625,57.89925,216.3271484375,57.89925,216.3271484375,57.89925C216.3271484375,57.89925,216.3271484375,53.510578125,216.3271484375,53.510578125C216.3271484375,53.510578125,216.822265625,53.510578125,216.822265625,53.510578125C216.822265625,53.510578125,216.8486328125,53.862140625,216.8486328125,53.862140625C217.06933496094,53.588704101562,217.3759765625,53.451984375,217.7685546875,53.451984375C218.1494140625,53.451984375,218.45068261719,53.5955390625,218.67236328125,53.8826484375C218.89404394531,54.1697578125,219.0048828125,54.569170898438,219.0048828125,55.080890625C219.0048828125,55.080890625,219.0048828125,55.1306953125,219.0048828125,55.1306953125Z M218.462890625,55.069171875C218.462890625,54.71175,218.38671875,54.429524414062,218.234375,54.2224921875C218.08203125,54.015459960938,217.87304785156,53.9119453125,217.607421875,53.9119453125C217.279296875,53.9119453125,217.033203125,54.057454101562,216.869140625,54.34846875C216.869140625,54.34846875,216.869140625,55.8631171875,216.869140625,55.8631171875C217.03124902344,56.152180664062,217.279296875,56.2967109375,217.61328125,56.2967109375C217.87304785156,56.2967109375,218.07959082031,56.193682617188,218.23291015625,55.98762890625C218.38622949219,55.781575195312,218.462890625,55.475422851562,218.462890625,55.069171875Z M219.107421875,56.6805Z M223.1357421875,56.6805C223.10449121094,56.618000976562,223.07910253906,56.506672851562,223.0595703125,56.346515625C222.8076171875,56.608233398438,222.50683496094,56.73909375,222.1572265625,56.73909375C221.84472558594,56.73909375,221.58837792969,56.650713867188,221.38818359375,56.47395703125C221.18798925781,56.297200195312,221.087890625,56.073079101562,221.087890625,55.80159375C221.087890625,55.471514648438,221.21337792969,55.215166992188,221.46435546875,55.03255078125C221.71533300781,54.849934570312,222.06836035156,54.758625,222.5234375,54.758625C222.5234375,54.758625,223.05078125,54.758625,223.05078125,54.758625C223.05078125,54.758625,223.05078125,54.5096015625,223.05078125,54.5096015625C223.05078125,54.320147460938,222.99414160156,54.169268554688,222.880859375,54.05696484375C222.76757714844,53.944661132812,222.60058496094,53.8885078125,222.3798828125,53.8885078125C222.1865234375,53.8885078125,222.02441503906,53.937336914062,221.8935546875,54.0349921875C221.76269433594,54.132647460938,221.697265625,54.250813476562,221.697265625,54.389484375C221.697265625,54.389484375,221.15234375,54.389484375,221.15234375,54.389484375C221.15234375,54.23128125,221.20849707031,54.078448242188,221.32080078125,53.93098828125C221.43310449219,53.783528320312,221.58544824219,53.666827148438,221.77783203125,53.580890625C221.97021582031,53.494954101562,222.18163964844,53.451984375,222.412109375,53.451984375C222.77734472656,53.451984375,223.06347558594,53.543293945312,223.2705078125,53.72591015625C223.47754003906,53.908526367188,223.58495996094,54.159993164062,223.5927734375,54.4803046875C223.5927734375,54.4803046875,223.5927734375,55.9392890625,223.5927734375,55.9392890625C223.5927734375,56.230303710938,223.62988378906,56.461749023438,223.7041015625,56.633625C223.7041015625,56.633625,223.7041015625,56.6805,223.7041015625,56.6805C223.7041015625,56.6805,223.1357421875,56.6805,223.1357421875,56.6805Z M222.236328125,56.2674140625C222.40625,56.2674140625,222.5673828125,56.22346875,222.7197265625,56.135578125C222.8720703125,56.0476875,222.98242285156,55.9334296875,223.05078125,55.7928046875C223.05078125,55.7928046875,223.05078125,55.1424140625,223.05078125,55.1424140625C223.05078125,55.1424140625,222.6259765625,55.1424140625,222.6259765625,55.1424140625C221.96191308594,55.1424140625,221.6298828125,55.336749023438,221.6298828125,55.725421875C221.6298828125,55.89534375,221.68652246094,56.028155273438,221.7998046875,56.123859375C221.91308691406,56.219563476562,222.05859277344,56.2674140625,222.236328125,56.2674140625Z M225.072265625,53.510578125C225.072265625,53.510578125,225.08984375,53.909015625,225.08984375,53.909015625C225.33203222656,53.604328125,225.64843847656,53.451984375,226.0390625,53.451984375C226.70898535156,53.451984375,227.046875,53.8299140625,227.052734375,54.5857734375C227.052734375,54.5857734375,227.052734375,56.6805,227.052734375,56.6805C227.052734375,56.6805,226.5107421875,56.6805,226.5107421875,56.6805C226.5107421875,56.6805,226.5107421875,54.58284375,226.5107421875,54.58284375C226.50878808594,54.354328125,226.45654296875,54.185381835938,226.35400390625,54.0760078125C226.25146484375,53.966633789062,226.091796875,53.9119453125,225.875,53.9119453125C225.69921875,53.9119453125,225.54492089844,53.9588203125,225.412109375,54.0525703125C225.27929785156,54.1463203125,225.17578027344,54.2693671875,225.1015625,54.4217109375C225.1015625,54.4217109375,225.1015625,56.6805,225.1015625,56.6805C225.1015625,56.6805,224.5595703125,56.6805,224.5595703125,56.6805C224.5595703125,56.6805,224.5595703125,53.510578125,224.5595703125,53.510578125C224.5595703125,53.510578125,225.072265625,53.510578125,225.072265625,53.510578125Z M227.73828125,55.069171875C227.73828125,54.58284375,227.85351464844,54.19173046875,228.083984375,53.89583203125C228.31445410156,53.59993359375,228.61621191406,53.451984375,228.9892578125,53.451984375C229.36035253906,53.451984375,229.654296875,53.578936523438,229.87109375,53.83284375C229.87109375,53.83284375,229.87109375,52.1805,229.87109375,52.1805C229.87109375,52.1805,230.4130859375,52.1805,230.4130859375,52.1805C230.4130859375,52.1805,230.4130859375,56.6805,230.4130859375,56.6805C230.4130859375,56.6805,229.9150390625,56.6805,229.9150390625,56.6805C229.9150390625,56.6805,229.888671875,56.34065625,229.888671875,56.34065625C229.671875,56.606282226562,229.3701171875,56.73909375,228.9833984375,56.73909375C228.61621191406,56.73909375,228.31689453125,56.588704101562,228.08544921875,56.287921875C227.85400390625,55.987139648438,227.73828125,55.594561523438,227.73828125,55.1101875C227.73828125,55.1101875,227.73828125,55.069171875,227.73828125,55.069171875Z M228.2802734375,55.1306953125C228.2802734375,55.490071289062,228.35449121094,55.771321289062,228.5029296875,55.9744453125C228.65136816406,56.177569335938,228.85644628906,56.2791328125,229.1181640625,56.2791328125C229.46191308594,56.2791328125,229.712890625,56.124834960938,229.87109375,55.8162421875C229.87109375,55.8162421875,229.87109375,54.3601875,229.87109375,54.3601875C229.70898535156,54.061359375,229.45996191406,53.9119453125,229.1240234375,53.9119453125C228.85839746094,53.9119453125,228.65136816406,54.014484375,228.5029296875,54.2195625C228.35449121094,54.424640625,228.2802734375,54.728352539062,228.2802734375,55.1306953125Z"/><path fill="#000000" d="M178.0390625,62.495765625C178.0390625,62.495765625,178.0390625,64.1656875,178.0390625,64.1656875C178.0390625,64.1656875,177.4765625,64.1656875,177.4765625,64.1656875C177.4765625,64.1656875,177.4765625,59.9000625,177.4765625,59.9000625C177.4765625,59.9000625,179.0498046875,59.9000625,179.0498046875,59.9000625C179.51660058594,59.9000625,179.88232519531,60.019204101563,180.14697265625,60.257484375C180.41162011719,60.495764648438,180.5439453125,60.8111953125,180.5439453125,61.2037734375C180.5439453125,61.617834960938,180.41454980469,61.936684570313,180.15576171875,62.16031640625C179.89697363281,62.383948242188,179.52636816406,62.495765625,179.0439453125,62.495765625C179.0439453125,62.495765625,178.0390625,62.495765625,178.0390625,62.495765625Z M178.0390625,62.0358046875C178.0390625,62.0358046875,179.0498046875,62.0358046875,179.0498046875,62.0358046875C179.35058691406,62.0358046875,179.58105371094,61.965002929688,179.7412109375,61.82340234375C179.90136816406,61.681801757813,179.9814453125,61.477209960938,179.9814453125,61.2096328125C179.9814453125,60.955725585938,179.90136816406,60.7526015625,179.7412109375,60.6002578125C179.58105371094,60.4479140625,179.36132714844,60.3688125,179.08203125,60.362953125C179.08203125,60.362953125,178.0390625,60.362953125,178.0390625,60.362953125C178.0390625,60.362953125,178.0390625,62.0358046875,178.0390625,62.0358046875Z M183.1337890625,63.8522109375C182.9228515625,64.100258789063,182.61328027344,64.22428125,182.205078125,64.22428125C181.86718847656,64.22428125,181.60986230469,64.12613671875,181.43310546875,63.92984765625C181.25634863281,63.73355859375,181.16699316406,63.443030273438,181.1650390625,63.058265625C181.1650390625,63.058265625,181.1650390625,60.995765625,181.1650390625,60.995765625C181.1650390625,60.995765625,181.70703125,60.995765625,181.70703125,60.995765625C181.70703125,60.995765625,181.70703125,63.0436171875,181.70703125,63.0436171875C181.70703125,63.5240859375,181.90234472656,63.7643203125,182.29296875,63.7643203125C182.70703027344,63.7643203125,182.98242089844,63.610022460938,183.119140625,63.3014296875C183.119140625,63.3014296875,183.119140625,60.995765625,183.119140625,60.995765625C183.119140625,60.995765625,183.6611328125,60.995765625,183.6611328125,60.995765625C183.6611328125,60.995765625,183.6611328125,64.1656875,183.6611328125,64.1656875C183.6611328125,64.1656875,183.1455078125,64.1656875,183.1455078125,64.1656875C183.1455078125,64.1656875,183.1337890625,63.8522109375,183.1337890625,63.8522109375Z M187.16796875,62.6158828125C187.16796875,63.100256835938,187.056640625,63.489418945313,186.833984375,63.78336328125C186.611328125,64.077307617188,186.3125,64.22428125,185.9375,64.22428125C185.53710839844,64.22428125,185.22754003906,64.082680664063,185.0087890625,63.7994765625C185.0087890625,63.7994765625,184.982421875,64.1656875,184.982421875,64.1656875C184.982421875,64.1656875,184.484375,64.1656875,184.484375,64.1656875C184.484375,64.1656875,184.484375,59.6656875,184.484375,59.6656875C184.484375,59.6656875,185.0263671875,59.6656875,185.0263671875,59.6656875C185.0263671875,59.6656875,185.0263671875,61.3443984375,185.0263671875,61.3443984375C185.24511816406,61.072913085938,185.54687597656,60.937171875,185.931640625,60.937171875C186.31640527344,60.937171875,186.61865234375,61.082680664063,186.83837890625,61.3736953125C187.05810546875,61.664709960938,187.16796875,62.063147460938,187.16796875,62.5690078125C187.16796875,62.5690078125,187.16796875,62.6158828125,187.16796875,62.6158828125Z M186.6259765625,62.554359375C186.6259765625,62.18521875,186.55468847656,61.900063476563,186.412109375,61.698890625C186.26953027344,61.497717773438,186.06445214844,61.3971328125,185.796875,61.3971328125C185.439453125,61.3971328125,185.18261621094,61.563149414063,185.0263671875,61.8951796875C185.0263671875,61.8951796875,185.0263671875,63.2662734375,185.0263671875,63.2662734375C185.19238378906,63.598303710938,185.451171875,63.7643203125,185.802734375,63.7643203125C186.06250097656,63.7643203125,186.26464941406,63.663735351563,186.4091796875,63.4625625C186.55370996094,63.261389648438,186.6259765625,62.95865625,186.6259765625,62.554359375Z M188.439453125,64.1656875C188.439453125,64.1656875,187.8974609375,64.1656875,187.8974609375,64.1656875C187.8974609375,64.1656875,187.8974609375,59.6656875,187.8974609375,59.6656875C187.8974609375,59.6656875,188.439453125,59.6656875,188.439453125,59.6656875C188.439453125,59.6656875,188.439453125,64.1656875,188.439453125,64.1656875Z M189.8955078125,64.1656875C189.8955078125,64.1656875,189.353515625,64.1656875,189.353515625,64.1656875C189.353515625,64.1656875,189.353515625,60.995765625,189.353515625,60.995765625C189.353515625,60.995765625,189.8955078125,60.995765625,189.8955078125,60.995765625C189.8955078125,60.995765625,189.8955078125,64.1656875,189.8955078125,64.1656875Z M189.3095703125,60.1549453125C189.3095703125,60.0670546875,189.33642675781,59.992836914063,189.39013671875,59.9322890625C189.44384667969,59.871741210938,189.5234375,59.84146875,189.62890625,59.84146875C189.734375,59.84146875,189.81445214844,59.871741210938,189.869140625,59.9322890625C189.92382910156,59.992836914063,189.951171875,60.0670546875,189.951171875,60.1549453125C189.951171875,60.2428359375,189.92382910156,60.316078125,189.869140625,60.374671875C189.81445214844,60.433265625,189.734375,60.4625625,189.62890625,60.4625625C189.5234375,60.4625625,189.44384667969,60.433265625,189.39013671875,60.374671875C189.33642675781,60.316078125,189.3095703125,60.2428359375,189.3095703125,60.1549453125Z M192.6083984375,63.3248671875C192.6083984375,63.1783828125,192.55322363281,63.064614257813,192.44287109375,62.98355859375C192.33251855469,62.902502929688,192.14013769531,62.8326796875,191.86572265625,62.7740859375C191.59130761719,62.7154921875,191.37353515625,62.6451796875,191.21240234375,62.5631484375C191.05126953125,62.4811171875,190.93212792969,62.383461914063,190.85498046875,62.2701796875C190.77783300781,62.156897460938,190.7392578125,62.022131835938,190.7392578125,61.8658828125C190.7392578125,61.606116210938,190.84912109375,61.386389648438,191.06884765625,61.206703125C191.28857421875,61.027016601563,191.56933496094,60.937171875,191.9111328125,60.937171875C192.27050878906,60.937171875,192.56201269531,61.029946289063,192.78564453125,61.2154921875C193.00927636719,61.401038085938,193.12109375,61.638342773438,193.12109375,61.92740625C193.12109375,61.92740625,192.576171875,61.92740625,192.576171875,61.92740625C192.576171875,61.778967773438,192.51318359375,61.651040039063,192.38720703125,61.5436171875C192.26123046875,61.436194335938,192.10253808594,61.382484375,191.9111328125,61.382484375C191.71386816406,61.382484375,191.5595703125,61.425454101563,191.4482421875,61.511390625C191.3369140625,61.597327148438,191.28125,61.709633789063,191.28125,61.8483046875C191.28125,61.979165039063,191.33300878906,62.077795898438,191.4365234375,62.144203125C191.54003808594,62.210610351563,191.72705175781,62.274084960938,191.99755859375,62.3346328125C192.26806542969,62.395180664063,192.48730566406,62.467444335938,192.6552734375,62.5514296875C192.82324121094,62.635415039063,192.94775292969,62.736489257813,193.02880859375,62.85465234375C193.10986425781,62.972815429688,193.150390625,63.116859375,193.150390625,63.28678125C193.150390625,63.569985351563,193.03710839844,63.797036132813,192.810546875,63.96793359375C192.58398535156,64.138831054688,192.29003808594,64.22428125,191.9287109375,64.22428125C191.67480371094,64.22428125,191.45019628906,64.179360351563,191.2548828125,64.089515625C191.05956933594,63.999670898438,190.90673925781,63.87418359375,190.79638671875,63.71305078125C190.68603417969,63.55191796875,190.630859375,63.3776015625,190.630859375,63.1901015625C190.630859375,63.1901015625,191.1728515625,63.1901015625,191.1728515625,63.1901015625C191.18261621094,63.3717421875,191.25537207031,63.515786132813,191.39111328125,63.62223046875C191.52685449219,63.728674804688,191.7060546875,63.7818984375,191.9287109375,63.7818984375C192.1337890625,63.7818984375,192.29834082031,63.740393554688,192.42236328125,63.65738671875C192.54638574219,63.574379882813,192.6083984375,63.463538085938,192.6083984375,63.3248671875Z M194.3984375,61.3795546875C194.638671875,61.084631835938,194.95117285156,60.937171875,195.3359375,60.937171875C196.00586035156,60.937171875,196.34375,61.3151015625,196.349609375,62.0709609375C196.349609375,62.0709609375,196.349609375,64.1656875,196.349609375,64.1656875C196.349609375,64.1656875,195.8076171875,64.1656875,195.8076171875,64.1656875C195.8076171875,64.1656875,195.8076171875,62.06803125,195.8076171875,62.06803125C195.80566308594,61.839515625,195.75341796875,61.670569335938,195.65087890625,61.5611953125C195.54833984375,61.451821289063,195.388671875,61.3971328125,195.171875,61.3971328125C194.99609375,61.3971328125,194.84179589844,61.4440078125,194.708984375,61.5377578125C194.57617285156,61.6315078125,194.47265527344,61.7545546875,194.3984375,61.9068984375C194.3984375,61.9068984375,194.3984375,64.1656875,194.3984375,64.1656875C194.3984375,64.1656875,193.8564453125,64.1656875,193.8564453125,64.1656875C193.8564453125,64.1656875,193.8564453125,59.6656875,193.8564453125,59.6656875C193.8564453125,59.6656875,194.3984375,59.6656875,194.3984375,59.6656875C194.3984375,59.6656875,194.3984375,61.3795546875,194.3984375,61.3795546875Z M197.75,64.1656875C197.75,64.1656875,197.2080078125,64.1656875,197.2080078125,64.1656875C197.2080078125,64.1656875,197.2080078125,60.995765625,197.2080078125,60.995765625C197.2080078125,60.995765625,197.75,60.995765625,197.75,60.995765625C197.75,60.995765625,197.75,64.1656875,197.75,64.1656875Z M197.1640625,60.1549453125C197.1640625,60.0670546875,197.19091894531,59.992836914063,197.24462890625,59.9322890625C197.29833886719,59.871741210938,197.3779296875,59.84146875,197.4833984375,59.84146875C197.5888671875,59.84146875,197.66894433594,59.871741210938,197.7236328125,59.9322890625C197.77832128906,59.992836914063,197.8056640625,60.0670546875,197.8056640625,60.1549453125C197.8056640625,60.2428359375,197.77832128906,60.316078125,197.7236328125,60.374671875C197.66894433594,60.433265625,197.5888671875,60.4625625,197.4833984375,60.4625625C197.3779296875,60.4625625,197.29833886719,60.433265625,197.24462890625,60.374671875C197.19091894531,60.316078125,197.1640625,60.2428359375,197.1640625,60.1549453125Z M199.1298828125,60.995765625C199.1298828125,60.995765625,199.1474609375,61.394203125,199.1474609375,61.394203125C199.38964941406,61.089515625,199.70605566406,60.937171875,200.0966796875,60.937171875C200.76660253906,60.937171875,201.1044921875,61.3151015625,201.1103515625,62.0709609375C201.1103515625,62.0709609375,201.1103515625,64.1656875,201.1103515625,64.1656875C201.1103515625,64.1656875,200.568359375,64.1656875,200.568359375,64.1656875C200.568359375,64.1656875,200.568359375,62.06803125,200.568359375,62.06803125C200.56640527344,61.839515625,200.51416015625,61.670569335938,200.41162109375,61.5611953125C200.30908203125,61.451821289063,200.1494140625,61.3971328125,199.9326171875,61.3971328125C199.7568359375,61.3971328125,199.60253808594,61.4440078125,199.4697265625,61.5377578125C199.33691503906,61.6315078125,199.23339746094,61.7545546875,199.1591796875,61.9068984375C199.1591796875,61.9068984375,199.1591796875,64.1656875,199.1591796875,64.1656875C199.1591796875,64.1656875,198.6171875,64.1656875,198.6171875,64.1656875C198.6171875,64.1656875,198.6171875,60.995765625,198.6171875,60.995765625C198.6171875,60.995765625,199.1298828125,60.995765625,199.1298828125,60.995765625Z M201.7109375,62.554359375C201.7109375,62.060217773438,201.8251953125,61.667153320313,202.0537109375,61.37516015625C202.2822265625,61.083166992188,202.58495996094,60.937171875,202.9619140625,60.937171875C203.3486328125,60.937171875,203.650390625,61.073891601563,203.8671875,61.347328125C203.8671875,61.347328125,203.8935546875,60.995765625,203.8935546875,60.995765625C203.8935546875,60.995765625,204.388671875,60.995765625,204.388671875,60.995765625C204.388671875,60.995765625,204.388671875,64.089515625,204.388671875,64.089515625C204.388671875,64.499671875,204.26708984375,64.822913085938,204.02392578125,65.0592421875C203.78076171875,65.295571289063,203.4541015625,65.413734375,203.0439453125,65.413734375C202.8154296875,65.413734375,202.59179785156,65.364905273438,202.373046875,65.26725C202.15429589844,65.169594726563,201.98730371094,65.0358046875,201.8720703125,64.8658828125C201.8720703125,64.8658828125,202.1533203125,64.5406875,202.1533203125,64.5406875C202.38574121094,64.827796875,202.66992089844,64.9713515625,203.005859375,64.9713515625C203.26953125,64.9713515625,203.47509863281,64.897133789063,203.62255859375,64.7486953125C203.77001855469,64.600256835938,203.84375,64.3912734375,203.84375,64.1217421875C203.84375,64.1217421875,203.84375,63.84928125,203.84375,63.84928125C203.626953125,64.099280273438,203.3310546875,64.22428125,202.9560546875,64.22428125C202.58495996094,64.22428125,202.28466699219,64.0748671875,202.05517578125,63.7760390625C201.82568457031,63.4772109375,201.7109375,63.069984375,201.7109375,62.554359375Z M202.255859375,62.6158828125C202.255859375,62.9733046875,202.3291015625,63.254065429688,202.4755859375,63.45816796875C202.6220703125,63.662270507813,202.8271484375,63.7643203125,203.0908203125,63.7643203125C203.43261816406,63.7643203125,203.68359277344,63.609046875,203.84375,63.2985C203.84375,63.2985,203.84375,61.851234375,203.84375,61.851234375C203.67773339844,61.548500976563,203.42870996094,61.3971328125,203.0966796875,61.3971328125C202.8330078125,61.3971328125,202.62695410156,61.499671875,202.478515625,61.70475C202.33007714844,61.909828125,202.255859375,62.213540039063,202.255859375,62.6158828125Z M204.6201171875,64.1656875Z M208.033203125,62.2643203125C207.55078027344,62.125649414063,207.19970703125,61.95523828125,206.97998046875,61.75308984375C206.76025390625,61.55094140625,206.650390625,61.301428710938,206.650390625,61.0045546875C206.650390625,60.668616210938,206.78466699219,60.39078515625,207.05322265625,60.17105859375C207.32177832031,59.95133203125,207.67089746094,59.84146875,208.1005859375,59.84146875C208.3935546875,59.84146875,208.65478613281,59.898108398438,208.88427734375,60.011390625C209.11376855469,60.124672851563,209.29150390625,60.280921875,209.41748046875,60.480140625C209.54345703125,60.679359375,209.6064453125,60.897131835938,209.6064453125,61.1334609375C209.6064453125,61.1334609375,209.041015625,61.1334609375,209.041015625,61.1334609375C209.041015625,60.8756484375,208.958984375,60.673010742188,208.794921875,60.52555078125C208.630859375,60.378090820313,208.3994140625,60.304359375,208.1005859375,60.304359375C207.82324121094,60.304359375,207.60693359375,60.365393554688,207.45166015625,60.48746484375C207.29638671875,60.609536132813,207.21875,60.77896875,207.21875,60.995765625C207.21875,61.169592773438,207.29248144531,61.31656640625,207.43994140625,61.43668359375C207.58740136719,61.55680078125,207.83837890625,61.6666640625,208.19287109375,61.7662734375C208.54736328125,61.8658828125,208.82470800781,61.97574609375,209.02490234375,62.09586328125C209.22509667969,62.21598046875,209.37353515625,62.356116210938,209.47021484375,62.5162734375C209.56689453125,62.676430664063,209.615234375,62.86490625,209.615234375,63.081703125C209.615234375,63.42740625,209.48046875,63.70426171875,209.2109375,63.91226953125C208.94140625,64.12027734375,208.5810546875,64.22428125,208.1298828125,64.22428125C207.8369140625,64.22428125,207.56347753906,64.168127929688,207.3095703125,64.05582421875C207.05566308594,63.943520507813,206.85986328125,63.789711914063,206.72216796875,63.5943984375C206.58447265625,63.399084960938,206.515625,63.177407226563,206.515625,62.929359375C206.515625,62.929359375,207.0810546875,62.929359375,207.0810546875,62.929359375C207.0810546875,63.187171875,207.17626953125,63.39078515625,207.36669921875,63.54019921875C207.55712890625,63.68961328125,207.81152246094,63.7643203125,208.1298828125,63.7643203125C208.42675683594,63.7643203125,208.654296875,63.703772460938,208.8125,63.5826796875C208.970703125,63.461586914063,209.0498046875,63.296545898438,209.0498046875,63.0875625C209.0498046875,62.878579101563,208.9765625,62.71695703125,208.830078125,62.60269921875C208.68359375,62.48844140625,208.41796777344,62.3756484375,208.033203125,62.2643203125Z M210.986328125,60.2281875C210.986328125,60.2281875,210.986328125,60.995765625,210.986328125,60.995765625C210.986328125,60.995765625,211.578125,60.995765625,211.578125,60.995765625C211.578125,60.995765625,211.578125,61.4147109375,211.578125,61.4147109375C211.578125,61.4147109375,210.986328125,61.4147109375,210.986328125,61.4147109375C210.986328125,61.4147109375,210.986328125,63.38053125,210.986328125,63.38053125C210.986328125,63.507483398438,211.0126953125,63.602698242188,211.0654296875,63.66617578125C211.1181640625,63.729653320313,211.20800878906,63.761390625,211.3349609375,63.761390625C211.39745996094,63.761390625,211.48339941406,63.749671875,211.5927734375,63.726234375C211.5927734375,63.726234375,211.5927734375,64.1656875,211.5927734375,64.1656875C211.45019433594,64.204749023438,211.3115234375,64.22428125,211.1767578125,64.22428125C210.93456933594,64.22428125,210.751953125,64.1510390625,210.62890625,64.0045546875C210.505859375,63.8580703125,210.4443359375,63.6500625,210.4443359375,63.38053125C210.4443359375,63.38053125,210.4443359375,61.4147109375,210.4443359375,61.4147109375C210.4443359375,61.4147109375,209.8671875,61.4147109375,209.8671875,61.4147109375C209.8671875,61.4147109375,209.8671875,60.995765625,209.8671875,60.995765625C209.8671875,60.995765625,210.4443359375,60.995765625,210.4443359375,60.995765625C210.4443359375,60.995765625,210.4443359375,60.2281875,210.4443359375,60.2281875C210.4443359375,60.2281875,210.986328125,60.2281875,210.986328125,60.2281875Z M214.16796875,63.8522109375C213.95703125,64.100258789063,213.64745996094,64.22428125,213.2392578125,64.22428125C212.90136816406,64.22428125,212.64404199219,64.12613671875,212.46728515625,63.92984765625C212.29052832031,63.73355859375,212.20117285156,63.443030273438,212.19921875,63.058265625C212.19921875,63.058265625,212.19921875,60.995765625,212.19921875,60.995765625C212.19921875,60.995765625,212.7412109375,60.995765625,212.7412109375,60.995765625C212.7412109375,60.995765625,212.7412109375,63.0436171875,212.7412109375,63.0436171875C212.7412109375,63.5240859375,212.93652441406,63.7643203125,213.3271484375,63.7643203125C213.74120996094,63.7643203125,214.01660058594,63.610022460938,214.1533203125,63.3014296875C214.1533203125,63.3014296875,214.1533203125,60.995765625,214.1533203125,60.995765625C214.1533203125,60.995765625,214.6953125,60.995765625,214.6953125,60.995765625C214.6953125,60.995765625,214.6953125,64.1656875,214.6953125,64.1656875C214.6953125,64.1656875,214.1796875,64.1656875,214.1796875,64.1656875C214.1796875,64.1656875,214.16796875,63.8522109375,214.16796875,63.8522109375Z M215.38671875,62.554359375C215.38671875,62.06803125,215.50195214844,61.67691796875,215.732421875,61.38101953125C215.96289160156,61.08512109375,216.26464941406,60.937171875,216.6376953125,60.937171875C217.00879003906,60.937171875,217.302734375,61.064124023438,217.51953125,61.31803125C217.51953125,61.31803125,217.51953125,59.6656875,217.51953125,59.6656875C217.51953125,59.6656875,218.0615234375,59.6656875,218.0615234375,59.6656875C218.0615234375,59.6656875,218.0615234375,64.1656875,218.0615234375,64.1656875C218.0615234375,64.1656875,217.5634765625,64.1656875,217.5634765625,64.1656875C217.5634765625,64.1656875,217.537109375,63.82584375,217.537109375,63.82584375C217.3203125,64.091469726563,217.0185546875,64.22428125,216.6318359375,64.22428125C216.26464941406,64.22428125,215.96533203125,64.073891601563,215.73388671875,63.773109375C215.50244140625,63.472327148438,215.38671875,63.079749023438,215.38671875,62.595375C215.38671875,62.595375,215.38671875,62.554359375,215.38671875,62.554359375Z M215.9287109375,62.6158828125C215.9287109375,62.975258789063,216.00292871094,63.256508789063,216.1513671875,63.4596328125C216.29980566406,63.662756835938,216.50488378906,63.7643203125,216.7666015625,63.7643203125C217.11035058594,63.7643203125,217.361328125,63.610022460938,217.51953125,63.3014296875C217.51953125,63.3014296875,217.51953125,61.845375,217.51953125,61.845375C217.35742285156,61.546546875,217.10839941406,61.3971328125,216.7724609375,61.3971328125C216.50683496094,61.3971328125,216.29980566406,61.499671875,216.1513671875,61.70475C216.00292871094,61.909828125,215.9287109375,62.213540039063,215.9287109375,62.6158828125Z M219.4912109375,64.1656875C219.4912109375,64.1656875,218.94921875,64.1656875,218.94921875,64.1656875C218.94921875,64.1656875,218.94921875,60.995765625,218.94921875,60.995765625C218.94921875,60.995765625,219.4912109375,60.995765625,219.4912109375,60.995765625C219.4912109375,60.995765625,219.4912109375,64.1656875,219.4912109375,64.1656875Z M218.9052734375,60.1549453125C218.9052734375,60.0670546875,218.93212988281,59.992836914063,218.98583984375,59.9322890625C219.03954980469,59.871741210938,219.119140625,59.84146875,219.224609375,59.84146875C219.330078125,59.84146875,219.41015527344,59.871741210938,219.46484375,59.9322890625C219.51953222656,59.992836914063,219.546875,60.0670546875,219.546875,60.1549453125C219.546875,60.2428359375,219.51953222656,60.316078125,219.46484375,60.374671875C219.41015527344,60.433265625,219.330078125,60.4625625,219.224609375,60.4625625C219.119140625,60.4625625,219.03954980469,60.433265625,218.98583984375,60.374671875C218.93212988281,60.316078125,218.9052734375,60.2428359375,218.9052734375,60.1549453125Z M220.21484375,62.5514296875C220.21484375,62.2408828125,220.27587792969,61.961586914063,220.39794921875,61.7135390625C220.52002050781,61.465491210938,220.68994238281,61.2740859375,220.90771484375,61.1393203125C221.12548730469,61.0045546875,221.37402441406,60.937171875,221.6533203125,60.937171875C222.08495996094,60.937171875,222.43408203125,61.0865859375,222.70068359375,61.3854140625C222.96728515625,61.6842421875,223.1005859375,62.081704101563,223.1005859375,62.577796875C223.1005859375,62.577796875,223.1005859375,62.6158828125,223.1005859375,62.6158828125C223.1005859375,62.924475585938,223.04150292969,63.201331054688,222.92333984375,63.44644921875C222.80517675781,63.691567382813,222.63623046875,63.882483398438,222.41650390625,64.019203125C222.19677734375,64.155922851563,221.94433496094,64.22428125,221.6591796875,64.22428125C221.22949121094,64.22428125,220.88134765625,64.0748671875,220.61474609375,63.7760390625C220.34814453125,63.4772109375,220.21484375,63.081703125,220.21484375,62.589515625C220.21484375,62.589515625,220.21484375,62.5514296875,220.21484375,62.5514296875Z M220.759765625,62.6158828125C220.759765625,62.9674453125,220.84130761719,63.249670898438,221.00439453125,63.4625625C221.16748144531,63.675454101563,221.38574316406,63.7818984375,221.6591796875,63.7818984375C221.9345703125,63.7818984375,222.15332128906,63.673989257813,222.3154296875,63.45816796875C222.47753808594,63.242346679688,222.55859375,62.940102539063,222.55859375,62.5514296875C222.55859375,62.203772460938,222.47607324219,61.922036132813,222.31103515625,61.70621484375C222.14599707031,61.490393554688,221.92675683594,61.382484375,221.6533203125,61.382484375C221.38574316406,61.382484375,221.169921875,61.488928710938,221.005859375,61.7018203125C220.841796875,61.914711914063,220.759765625,62.219399414063,220.759765625,62.6158828125Z"/></svg>
